<svg width="100" height="100" viewBox="0 0 100 100" fill="none" xmlns="http://www.w3.org/2000/svg">
<path fill-rule="evenodd" clip-rule="evenodd" d="M46.8712 30.046C46.5768 30.1374 46.1723 30.4883 46.04 30.7671C45.966 30.923 45.9048 31.3766 45.8573 32.123C45.8179 32.7399 45.7528 33.4186 45.7126 33.6313C45.4347 35.1018 44.8184 35.972 43.6033 36.6096C43.2736 36.7826 40.7732 37.8627 38.0467 39.0099C35.3203 40.157 32.9608 41.1592 32.8034 41.2369C32.3615 41.4551 31.9989 42.0022 32.0001 42.4487C32.0014 42.9595 32.3783 43.5368 32.836 43.7292C32.9755 43.7879 37.108 45.0755 42.0195 46.5906C49.9338 49.032 51.0014 49.3451 51.4065 49.3437C51.8429 49.3422 51.9431 49.3046 53.6214 48.5104C55.8137 47.4729 58.101 46.4295 60.3434 45.4437C63.0055 44.2733 63.5688 43.963 64.4549 43.1787C66.0424 41.7734 66.5284 40.3422 66.5493 37.0099C66.564 34.6844 66.595 34.7236 64.2827 34.1425C59.5233 32.9463 47.6023 30.0343 47.3634 30.0096C47.2087 29.9935 46.9872 30.0099 46.8712 30.046ZM48.5578 33.4028C48.1904 35.6805 47.6261 36.9031 46.4428 37.9845C45.5085 38.8384 45.0486 39.0721 40.7411 40.8811C38.9552 41.6312 37.5155 42.2643 37.5418 42.2881C37.6065 42.3464 51.1343 46.4994 51.2589 46.4991C51.3131 46.499 52.3889 46.0203 53.6496 45.4353C56.0748 44.3099 57.9343 43.471 59.6685 42.7201C62.2016 41.6232 62.9028 41.1344 63.3672 40.142C63.615 39.6127 63.7809 38.59 63.7815 37.5893L63.7819 36.8712L63.5182 36.8006C63.2856 36.7384 60.504 36.0532 51.2059 33.7675C49.8 33.4219 48.6386 33.1391 48.6251 33.1391C48.6114 33.1391 48.5811 33.2578 48.5578 33.4028Z" fill="#F09321"/>
<path fill-rule="evenodd" clip-rule="evenodd" d="M66.2781 45.2976C66.1621 45.3289 63.5833 46.485 60.5475 47.8664C57.5116 49.248 54.1991 50.7552 53.1863 51.216C52.1735 51.6767 51.3138 52.0536 51.2761 52.0536C51.2382 52.0536 47.2493 50.8354 42.4118 49.3465C37.3613 47.792 33.5041 46.64 33.3529 46.6409C32.4872 46.646 31.8134 47.5685 32.0642 48.4054C32.1704 48.7602 32.4841 49.115 32.8225 49.2632C32.9693 49.3276 37.1081 50.6191 42.0195 52.1333C49.2918 54.3753 51.0278 54.8876 51.3714 54.8938C51.7844 54.9012 51.9565 54.8271 59.4928 51.3982C63.7275 49.4715 67.2956 47.8261 67.4219 47.7418C67.7005 47.5561 68.0011 46.9849 68.0001 46.6432C67.9998 46.5057 67.9235 46.2301 67.8307 46.0308C67.5647 45.4594 66.8786 45.1354 66.2781 45.2976ZM66.243 50.8341C66.1307 50.8801 63.518 52.0589 62.6921 52.436C62.4214 52.5596 59.7462 53.7763 56.7473 55.1398L51.2947 57.6189L42.5789 54.9279C36.795 53.1421 33.7299 52.2278 33.4673 52.2098C32.8253 52.1657 32.2694 52.5393 32.0677 53.1505C31.8888 53.6926 32.1552 54.4113 32.6454 54.7095C32.8708 54.8466 50.3862 60.2692 51.0926 60.4206C51.3621 60.4783 51.5139 60.4733 51.7581 60.3988C52.2928 60.2356 67.1761 53.4527 67.4383 53.2528C68.4399 52.4888 67.9795 50.9183 66.7253 50.8202C66.518 50.804 66.301 50.8102 66.243 50.8341Z" fill="white"/>
<path fill-rule="evenodd" clip-rule="evenodd" d="M66.2781 50.9228C66.1621 50.9541 63.5833 52.1102 60.5475 53.4916C57.5116 54.8732 54.1991 56.3805 53.1863 56.8412C52.1735 57.3019 51.3138 57.6788 51.2761 57.6788C51.2382 57.6788 47.2493 56.4606 42.4118 54.9717C37.3613 53.4173 33.5041 52.2652 33.3529 52.2661C32.4872 52.2712 31.8134 53.1937 32.0642 54.0306C32.1704 54.3854 32.4841 54.7402 32.8225 54.8885C32.9693 54.9529 37.1081 56.2443 42.0195 57.7585C49.2918 60.0005 51.0278 60.5129 51.3714 60.519C51.7844 60.5264 51.9565 60.4523 59.4928 57.0234C63.7275 55.0967 67.2956 53.4514 67.4219 53.3671C67.7005 53.1813 68.0011 52.6101 68.0001 52.2684C67.9998 52.1309 67.9235 51.8554 67.8307 51.656C67.5647 51.0846 66.8786 50.7606 66.2781 50.9228ZM66.243 56.4593C66.1307 56.5053 63.518 57.6841 62.6921 58.0612C62.4214 58.1848 59.7462 59.4015 56.7473 60.765L51.2947 63.2441L42.5789 60.5531C36.795 58.7674 33.7299 57.8531 33.4673 57.835C32.8253 57.7909 32.2694 58.1645 32.0677 58.7757C31.8888 59.3178 32.1552 60.0365 32.6454 60.3347C32.8708 60.4719 50.3862 65.8944 51.0926 66.0458C51.3621 66.1035 51.5139 66.0985 51.7581 66.024C52.2928 65.8608 67.1761 59.0779 67.4383 58.878C68.4399 58.114 67.9795 56.5435 66.7253 56.4454C66.518 56.4292 66.301 56.4354 66.243 56.4593Z" fill="white"/>
<path fill-rule="evenodd" clip-rule="evenodd" d="M66.2777 51.2979C66.1617 51.3292 63.5829 52.4852 60.5471 53.8667C57.5113 55.2482 54.1987 56.7555 53.1859 57.2162C52.1731 57.6769 51.3134 58.0538 51.2757 58.0538C51.2378 58.0538 47.2489 56.8356 42.4114 55.3467C37.361 53.7923 33.5037 52.6402 33.3525 52.6412C32.4868 52.6462 31.8131 53.5687 32.0638 54.4056C32.17 54.7604 32.4837 55.1153 32.8221 55.2635C32.969 55.3279 37.1077 56.6194 42.0192 58.1335C49.2915 60.3755 51.0275 60.8879 51.371 60.8941C51.784 60.9014 51.9561 60.8273 59.4924 57.3984C63.7271 55.4717 67.2952 53.8264 67.4216 53.7421C67.7001 53.5563 68.0007 52.9851 67.9997 52.6434C67.9994 52.5059 67.9231 52.2304 67.8303 52.031C67.5643 51.4597 66.8782 51.1357 66.2777 51.2979ZM66.2426 56.8343C66.1304 56.8804 63.5176 58.0591 62.6917 58.4362C62.421 58.5598 59.7459 59.7766 56.7469 61.14L51.2943 63.6191L42.5785 60.9282C36.7946 59.1424 33.7296 58.2281 33.4669 58.21C32.8249 58.1659 32.269 58.5395 32.0673 59.1508C31.8884 59.6928 32.1548 60.4116 32.645 60.7097C32.8704 60.8469 50.3858 66.2694 51.0922 66.4208C51.3617 66.4785 51.5135 66.4735 51.7578 66.399C52.2924 66.2359 67.1757 59.453 67.4379 59.253C68.4395 58.489 67.9791 56.9185 66.7249 56.8205C66.5176 56.8042 66.3006 56.8105 66.2426 56.8343Z" fill="white"/>
<path fill-rule="evenodd" clip-rule="evenodd" d="M66.2777 56.9231C66.1617 56.9544 63.5829 58.1104 60.5471 59.4919C57.5113 60.8734 54.1987 62.3807 53.1859 62.8414C52.1731 63.3021 51.3134 63.6791 51.2757 63.6791C51.2378 63.6791 47.2489 62.4609 42.4114 60.9719C37.361 59.4175 33.5037 58.2655 33.3525 58.2664C32.4868 58.2714 31.8131 59.194 32.0638 60.0308C32.17 60.3857 32.4837 60.7405 32.8221 60.8887C32.969 60.9531 37.1077 62.2446 42.0192 63.7587C49.2915 66.0007 51.0275 66.5131 51.371 66.5193C51.784 66.5267 51.9561 66.4525 59.4924 63.0236C63.7271 61.097 67.2952 59.4516 67.4216 59.3673C67.7001 59.1815 68.0007 58.6103 67.9997 58.2686C67.9994 58.1312 67.9231 57.8556 67.8303 57.6562C67.5643 57.0849 66.8782 56.7609 66.2777 56.9231ZM66.2426 62.4595C66.1304 62.5056 63.5176 63.6843 62.6917 64.0614C62.421 64.185 59.7459 65.4018 56.7469 66.7652L51.2943 69.2443L42.5785 66.5534C36.7946 64.7676 33.7296 63.8533 33.4669 63.8352C32.8249 63.7911 32.269 64.1647 32.0673 64.776C31.8884 65.318 32.1548 66.0368 32.645 66.3349C32.8704 66.4721 50.3858 71.8946 51.0922 72.046C51.3617 72.1037 51.5135 72.0987 51.7578 72.0242C52.2924 71.8611 67.1757 65.0782 67.4379 64.8782C68.4395 64.1142 67.9791 62.5438 66.7249 62.4457C66.5176 62.4294 66.3006 62.4357 66.2426 62.4595Z" fill="white"/>
</svg>
