<svg width="100" height="100" viewBox="0 0 100 100" fill="none" xmlns="http://www.w3.org/2000/svg">
<path fill-rule="evenodd" clip-rule="evenodd" d="M28.6819 36.601C27.7532 36.9467 27.253 37.3569 25.1301 39.5144C22.8073 41.8752 22.1827 42.9923 22.0258 45.0675C21.549 51.371 27.7618 62.0066 35.6241 68.3465C39.8946 71.7902 45.3229 74.6002 49.2859 75.4187C51.9645 75.9721 54.4391 75.6288 55.9893 74.4888C57.0225 73.7289 60.603 69.8648 60.8734 69.2176C61.0087 68.8936 61.1194 68.1758 61.1194 67.6223C61.1194 65.98 60.6566 65.2944 57.2879 61.9456C54.0548 58.7314 53.3894 58.2791 51.8942 58.2791C50.5809 58.2791 49.6939 58.7885 47.8463 60.6037C46.9317 61.5022 46.1081 62.2375 46.0162 62.2375C45.6888 62.2375 42.7333 60.1998 41.4212 59.0697C39.1692 57.1298 35.7888 52.9812 35.5019 51.8052C35.4386 51.5464 35.8176 51.0517 37.0212 49.8222C37.903 48.9213 38.778 47.8737 38.9656 47.4944C39.4248 46.5651 39.4291 44.8175 38.9742 43.8732C38.5267 42.9442 32.7972 37.2237 31.8918 36.8017C31.0193 36.3951 29.4915 36.2996 28.6819 36.601ZM29.4017 39.2937C28.8435 39.6469 25.3736 43.2207 25.1229 43.7008C24.3993 45.0856 24.7287 47.9658 25.9707 51.1155C29.3682 59.731 37.618 68.0385 46.3418 71.6293C49.3297 72.8593 52.2115 73.2659 53.6671 72.6629C54.4165 72.3527 57.9499 68.9347 58.2653 68.2151C58.3831 67.9463 58.4455 67.5481 58.4038 67.3304C58.3613 67.1079 57.0263 65.6403 55.3586 63.9824C52.2168 60.8591 51.9995 60.7227 51.1136 61.3158C50.8791 61.4729 49.8646 62.4041 48.8592 63.3851C47.1277 65.0747 46.9931 65.1689 46.3076 65.1689C44.7237 65.1689 40.8153 62.4615 37.659 59.178C34.4999 55.8912 32.497 52.8055 32.4958 51.2231C32.4953 50.4911 32.5569 50.4057 34.5645 48.3565C36.3749 46.5086 36.6337 46.1723 36.6337 45.6678C36.6337 45.1511 36.324 44.7815 33.6537 42.1113C31.126 39.5834 30.5961 39.1316 30.1619 39.1339C29.8805 39.1354 29.5384 39.2073 29.4017 39.2937Z" fill="white"/>
<path fill-rule="evenodd" clip-rule="evenodd" d="M56.3487 24.2012C50.5325 25.3072 45.606 29.0837 43.5582 34.0062C41.7519 38.3483 42.3839 43.5451 45.1953 47.4656C45.7812 48.2829 45.7873 48.3083 45.4989 48.7588C45.337 49.0116 44.7894 49.6093 44.2816 50.0871C43.532 50.7925 43.3585 51.0617 43.3585 51.5183C43.3585 52.3267 43.7731 53.0131 44.4281 53.2894C45.1565 53.5967 47.7818 53.5936 49.0489 53.2839C50.405 52.9524 52.0894 52.1591 52.3094 51.748C52.621 51.1657 52.5312 50.4309 52.0985 50.0243C51.5776 49.5351 51.0294 49.5512 49.8517 50.0904C48.8304 50.558 47.5775 50.8424 47.6904 50.5811C47.7273 50.4954 47.976 50.0099 48.2429 49.502C48.8371 48.3714 48.8752 47.7072 48.3808 47.0964C46.4504 44.7123 45.4712 42.3908 45.3119 39.8207C44.9425 33.8631 49.7201 28.3835 56.4994 26.989C58.2249 26.6341 61.429 26.6343 63.1526 26.9895C68.2256 28.0348 72.2163 31.2923 73.7773 35.6619C74.2667 37.0319 74.3072 37.3164 74.296 39.3034C74.2855 41.1669 74.2231 41.6301 73.8351 42.7236C73.5883 43.4192 73.1288 44.4233 72.8139 44.9548C72.014 46.3048 70.0838 48.3028 68.6738 49.2401C65.6736 51.2347 61.3491 52.2336 57.9292 51.7221C55.0594 51.2929 55.1061 51.2929 54.6457 51.7256C54.1172 52.222 54.0626 53.2454 54.5412 53.6786C55.3879 54.4447 59.5806 54.8309 62.4524 54.4074C66.6499 53.7884 70.0817 52.1091 72.8496 49.3196C76.373 45.7688 77.7997 41.1529 76.8285 36.4472C76.2178 33.488 74.7902 31.0507 72.2837 28.688C70.1122 26.641 67.6264 25.2986 64.4278 24.4458C62.7072 23.9871 58.1939 23.8505 56.3487 24.2012ZM53.736 38.1826C53.0317 38.7752 52.9802 39.6293 53.6106 40.2595C54.2409 40.89 55.0949 40.8384 55.6876 40.1342C56.204 39.5203 56.1854 38.7763 55.6396 38.2305C55.0939 37.6848 54.3498 37.6661 53.736 38.1826ZM59.2277 37.9679C57.5226 38.8473 58.71 41.2657 60.508 40.5758C60.8422 40.4475 61.2917 39.6293 61.2917 39.1491C61.2917 38.6882 60.6183 37.9594 60.0847 37.8425C59.8476 37.7906 59.462 37.847 59.2277 37.9679ZM64.4757 37.9119C63.9927 38.1127 63.7263 38.4681 63.6052 39.0729C63.4545 39.8267 64.2079 40.6829 65.0221 40.6829C65.7869 40.6829 66.4647 40.0428 66.4647 39.3208C66.4647 38.3557 65.3342 37.5547 64.4757 37.9119Z" fill="#F09321"/>
</svg>
