<svg width="100" height="100" viewBox="0 0 100 100" fill="none" xmlns="http://www.w3.org/2000/svg">
<path fill-rule="evenodd" clip-rule="evenodd" d="M33.4691 50.3969V35.1592C37.1173 35.1592 40.2516 35.0591 43.553 33.4663C44.5653 32.978 45.593 32.536 46.5655 31.882C47.007 31.5851 47.5439 31.2764 47.9401 30.9579C48.388 30.5978 48.7906 30.2064 49.2649 29.8884C49.7078 30.1852 50.1146 30.5555 50.5377 30.9143C51.6898 31.8917 53.5565 32.7743 54.9131 33.4342C58.2417 35.0534 61.3579 35.1592 65.0608 35.1592V50.3969C65.0608 55.8068 63.4676 60.4257 60.0101 64.1243C59.1051 65.0925 58.7994 65.5144 57.6611 66.4687C56.8057 67.1859 55.9615 67.9078 55.0289 68.5295L52.9937 69.9422C52.7234 70.1144 52.4915 70.2525 52.2326 70.4262C52.0061 70.5782 49.5066 72.247 49.2649 72.247C48.8924 72.247 44.1192 68.9399 43.5587 68.5675C42.8451 68.0933 40.4758 66.1755 39.7138 65.4207C37.5949 63.322 36.13 61.2247 34.9065 58.4455C34.5325 57.5959 34.3044 56.7 34.0822 55.8206C33.9817 55.4228 33.9161 55.2009 33.85 54.8072C33.6199 53.4355 33.4691 52.0056 33.4691 50.3969ZM30.5971 33.5301V51.8344C30.5971 55.0274 31.4046 57.652 32.5521 60.4191C33.0238 61.5566 33.8087 62.7366 34.4836 63.7564L36.8436 66.6647C37.2987 67.1188 37.6808 67.5032 38.1347 67.9599L41.0188 70.3436C41.5047 70.7332 42.0522 71.1089 42.5827 71.4613C42.8498 71.6388 43.0848 71.786 43.3292 71.9599C44.6053 72.8676 46.027 73.6903 47.3309 74.5665C49.5567 76.0623 49.2873 75.8325 52.7675 73.5492L54.3433 72.539C54.9412 72.1817 55.3765 71.8404 55.9462 71.4603C56.4709 71.1103 56.9575 70.7779 57.4576 70.3857L59.9729 68.3038C61.8665 66.7777 63.7805 64.268 65.0424 62.166C66.7948 59.247 67.9327 55.3063 67.9327 51.8344V33.5301C67.9327 31.6059 64.6425 32.4991 62.8851 32.258C61.9306 32.1271 61.6795 32.2518 60.0271 31.9565C59.2356 31.8151 58.1783 31.5652 57.5114 31.3124C57.1671 31.1819 56.7832 31.0617 56.3879 30.9037C54.9064 30.3116 52.6553 28.9782 51.4434 27.8993C51.122 27.6132 51.0151 27.4521 50.6457 27.1645C49.8467 26.5425 50.3759 26.5343 48.9514 26.5342H48.882C48.3783 26.5342 47.6024 27.44 47.0865 27.8993C46.2487 28.6451 44.2371 29.9812 43.2473 30.381L41.0185 31.3124C39.9765 31.7073 38.3272 32.0148 37.1778 32.1635C35.9584 32.3212 33.7378 32.2915 32.5111 32.2836C31.6488 32.278 30.5971 32.4602 30.5971 33.5301Z" fill="#F09321"/>
<path fill-rule="evenodd" clip-rule="evenodd" d="M39.2129 51.2593C39.0607 50.472 39.642 48.0215 40.0175 47.0814C40.2414 46.5207 40.5807 45.9551 40.8964 45.4695C41.0834 45.1819 41.2291 44.9825 41.4128 44.7406C42.6835 43.067 44.6928 41.8051 46.7549 41.2717C49.5331 40.5529 52.3655 41.0337 54.7612 42.5945C56.2911 43.5912 57.4729 44.9796 58.2967 46.6262C60.0147 50.0604 59.3977 54.1988 57.1168 57.2029C56.6563 57.8095 55.8062 58.6104 55.16 59.0774C54.6622 59.4372 54.1729 59.7289 53.6058 60.0132C53.0311 60.3014 52.4467 60.498 51.7747 60.6719C48.6333 61.4846 45.5891 60.7715 43.0402 58.8321C41.8808 57.9499 40.8916 56.6339 40.2329 55.3173C39.824 54.5 39.5153 53.4304 39.36 52.4537L39.2129 51.2593ZM36.3409 50.2051C36.3409 52.6256 36.4712 54.3205 37.5851 56.5305C38.037 57.4273 38.711 58.5805 39.381 59.3327C40.1586 60.2058 40.7758 60.7738 41.7282 61.4872C43.4325 62.7637 46.354 63.9094 48.4989 63.9094C50.9169 63.9094 52.61 63.7789 54.8176 62.6639C56.0931 62.0197 57.4117 61.1512 58.4226 60.1393C59.3899 59.1709 60.2945 57.8235 60.9124 56.5942C63.4315 51.5835 62.14 45.0828 58.0494 41.507C56.4224 40.0847 54.9216 39.0413 52.6549 38.4738C49.609 37.7113 46.5104 37.8662 43.7119 39.2796C40.3711 40.9671 37.7105 43.8537 36.7801 47.5781C36.5891 48.3427 36.3409 49.3228 36.3409 50.2051Z" fill="white"/>
<path fill-rule="evenodd" clip-rule="evenodd" d="M47.8286 53.1759C46.7223 52.4343 44.6693 49.5342 43.7121 49.5342C42.5712 49.5342 42.0847 50.0212 42.0847 51.1634C42.0847 51.8721 44.0933 53.6054 44.6455 54.1582C45.1978 54.711 46.9292 56.7217 47.6372 56.7217C48.8046 56.7217 49.1149 56.0571 50.3416 54.829L55.6069 49.5582C56.3314 48.8342 56.4445 48.8432 56.4445 47.905C56.4445 47.1259 55.7465 46.6592 54.8171 46.6592C54.147 46.6592 53.3353 47.7113 52.9264 48.1206L47.8286 53.1759Z" fill="white"/>
</svg>
