<svg width="100" height="100" viewBox="0 0 100 100" fill="none" xmlns="http://www.w3.org/2000/svg">
<g clip-path="url(#clip0_130_819)">
<path fill-rule="evenodd" clip-rule="evenodd" d="M56.7165 26.147C56.1764 26.3822 56.098 26.6289 56.0281 28.3108L55.9648 29.8347L55.5978 29.9107C54.2073 30.1988 52.8939 31.6007 52.6096 33.1003C52.5482 33.4236 52.5143 38.6486 52.5143 47.7697V61.937H46.1224H39.7305L39.7861 61.4407C39.8169 61.1678 39.9296 59.8596 40.0367 58.5338C40.1438 57.2079 40.2531 55.9849 40.2797 55.8159L40.328 55.5087H41.1121C42.8067 55.5087 44.3982 54.831 45.6637 53.5707C48.7288 50.5182 48.082 45.3465 44.3624 43.1666C43.6941 42.7749 42.5788 42.3808 41.9168 42.3024C41.6622 42.2722 41.454 42.2216 41.4542 42.1899C41.4546 42.1312 41.9677 36.174 42.0797 34.9278L42.1409 34.2463L42.5773 34.1896C45.7676 33.7748 48.2288 31.1118 48.2722 28.0278C48.2823 27.31 48.0517 26.9233 47.5184 26.7635C47.2341 26.6784 47.0963 26.6856 46.8215 26.8005C46.3623 26.9923 46.1858 27.2921 46.0782 28.0629C45.9521 28.9662 45.7521 29.5185 45.3129 30.1763C44.7501 31.0191 43.6667 31.7315 42.6749 31.911L42.3361 31.9724L42.3756 31.4747C42.4266 30.8333 42.2005 29.7705 41.864 29.0706C41.5433 28.4031 40.5627 27.3922 39.8869 27.0322C37.8226 25.9323 35.0755 26.5792 33.8188 28.4611C33.2256 29.3494 33.0231 29.9743 32.9688 31.0831L32.922 32.0398L32.3593 32.0987C29.9012 32.3555 27.653 34.4659 27.1382 36.9997C26.8442 38.4467 27.0109 39.6229 27.7112 41.0417C28.7398 43.1252 30.9181 44.4411 33.3475 44.4466C34.0094 44.448 34.0802 44.466 34.0802 44.6319C34.0802 44.8583 34.7184 52.3764 34.7848 52.9326L34.8329 53.3344L34.1965 53.3358C31.255 53.3422 28.7941 55.8018 28.7877 58.7418C28.7833 60.7628 29.9474 62.6818 31.7168 63.57C32.6174 64.022 33.4831 64.2021 34.7655 64.2042C35.6398 64.2056 35.7818 64.2272 35.7818 64.3594C35.7818 64.7112 36.5416 73.348 36.5916 73.5646C36.6705 73.9068 37.0913 74.3098 37.4375 74.3747C37.8217 74.4467 38.3657 74.2214 38.5738 73.9039C38.7013 73.7093 38.8075 72.7895 39.1019 69.3348C39.3047 66.9558 39.4939 64.8285 39.5226 64.6076L39.5748 64.2058H42.8096H46.0445H52.5143V64.8547C52.5143 66.2244 52.8633 67.1951 53.6579 68.0353C54.1568 68.5628 55.2663 69.2146 55.6702 69.2175C55.7803 69.2184 55.9128 69.2502 55.9648 69.2884C56.0207 69.3295 56.0593 69.9556 56.0593 70.8232C56.0593 72.4672 56.1369 72.7122 56.7373 72.963C57.1914 73.1528 68.0675 73.1528 68.5215 72.963C69.1034 72.7199 69.1881 72.4644 69.244 70.7818L69.2941 69.2752L69.7297 69.1644C71.1697 68.7979 72.365 67.5046 72.6493 66.0057C72.7869 65.2801 72.7795 33.8007 72.6416 33.0544C72.3709 31.5902 71.1642 30.3004 69.7195 29.9311L69.2941 29.8223L69.244 28.32C69.1892 26.6761 69.113 26.4289 68.5757 26.1511C68.2 25.9568 57.1619 25.953 56.7165 26.147ZM58.3379 28.2574C58.3065 28.2888 58.2809 28.6476 58.2809 29.055V29.7954H62.6332H66.9856L66.9581 29.0155L66.9307 28.2356L62.6628 28.2179C60.3154 28.2083 58.3693 28.226 58.3379 28.2574ZM37.0786 28.7597C36.5333 28.895 36.2343 29.0792 35.8068 29.5428C35.2659 30.1297 35.0302 30.9299 35.1791 31.6743L35.2382 31.9697H35.8772H36.516L36.5551 31.3563C36.601 30.6353 36.8182 30.2757 37.3064 30.1118C37.9451 29.8976 38.5162 30.2174 38.7042 30.8946C38.8352 31.3666 38.8388 35.5851 38.7086 36.0541C38.5285 36.7023 37.7909 37.0403 37.1845 36.7525C36.6917 36.5187 36.5984 36.2894 36.5553 35.2075L36.5166 34.2385H35.9602C35.6541 34.2385 35.4037 34.2723 35.4037 34.3135C35.4037 34.3818 36.5042 47.1602 36.8851 51.5146L37.0443 53.3344H37.6377H38.2311L38.2788 53.0272C38.3051 52.8582 38.3496 52.4434 38.3778 52.1054C38.5146 50.4648 39.3336 40.929 39.7084 36.6126C40.1844 31.1321 40.1986 30.7585 39.9517 30.2147C39.4464 29.1023 38.2139 28.4781 37.0786 28.7597ZM55.9777 32.1066C55.5295 32.2684 55.0867 32.6722 54.9133 33.0775C54.8288 33.275 54.7831 33.7508 54.7831 34.4348C54.7831 35.4798 54.7848 35.4875 54.9958 35.4346C55.1128 35.4053 57.8247 34.8043 61.0224 34.0992C64.22 33.3942 67.4448 32.6827 68.1886 32.5184C69.2745 32.2784 69.5073 32.1995 69.3703 32.1182C69.2544 32.0495 67.1353 32.0102 62.7712 31.9959C57.4716 31.9785 56.2788 31.9979 55.9777 32.1066ZM32.2132 34.3846C31.0605 34.695 30.1287 35.4794 29.61 36.576C29.069 37.7198 29.1525 39.2591 29.8118 40.2977C30.5797 41.5072 31.7078 42.1404 33.1821 42.1898C33.8301 42.2114 33.8435 42.2072 33.8239 41.9829C33.8129 41.857 33.6702 40.1162 33.5067 38.1144C33.3432 36.1127 33.194 34.4217 33.1751 34.3567C33.1315 34.2069 32.8421 34.2153 32.2132 34.3846ZM67.4034 34.9559C65.8956 35.2914 62.62 36.0149 60.1243 36.5637C57.6286 37.1125 55.4058 37.6059 55.1849 37.6601L54.7831 37.7587V38.7401C54.7831 39.2798 54.8173 39.7215 54.8592 39.7215C54.9431 39.7215 55.9037 39.5131 60.6915 38.4562C67.506 36.9518 70.3929 36.3183 70.4335 36.3183C70.4567 36.3183 70.4757 35.8716 70.4757 35.3257C70.4757 34.4409 70.4578 34.3337 70.3103 34.3394C70.2194 34.3429 68.9112 34.6203 67.4034 34.9559ZM68.0179 39.101C66.796 39.3759 63.3184 40.1475 60.2897 40.8156L54.7831 42.0304V43.0402V44.0499L55.1576 43.9659C55.7656 43.8292 62.5724 42.3325 66.5526 41.4603C68.5803 41.0159 70.2926 40.6356 70.3576 40.6152C70.4412 40.589 70.4757 40.3153 70.4757 39.6772C70.4757 39.1816 70.478 38.7442 70.4808 38.7053C70.4908 38.5633 70.1997 38.61 68.0179 39.101ZM69.8613 42.9824C69.6013 43.0501 67.1127 43.605 64.331 44.2154C61.5494 44.8257 58.2738 45.5457 57.0519 45.8153L54.8304 46.3056L54.8034 47.3259L54.7765 48.3462L54.9925 48.292C55.3037 48.214 65.6321 45.9374 69.2704 45.1448L70.4757 44.8823V43.9562C70.4757 43.4469 70.479 42.9994 70.4828 42.9616C70.4946 42.8484 70.3579 42.853 69.8613 42.9824ZM41.2244 44.8498C41.1666 45.2954 40.5056 53.0209 40.5074 53.2293C40.5089 53.4079 41.7255 53.2988 42.4283 53.057C44.8892 52.2104 46.0781 49.4096 44.9935 47.0148C44.4238 45.7573 43.0499 44.7205 41.6724 44.5087L41.2764 44.4478L41.2244 44.8498ZM66.7889 47.9511C64.9431 48.3614 61.7739 49.0625 59.7461 49.5089C57.7184 49.9554 55.7721 50.3853 55.4212 50.4643L54.7831 50.608V51.5931C54.7831 52.2621 54.8173 52.5781 54.8899 52.5781C54.9486 52.5781 57.1075 52.1114 59.6875 51.5411C68.6449 49.5607 70.3974 49.1749 70.4365 49.1749C70.4581 49.1749 70.4757 48.7282 70.4757 48.1823C70.4757 47.2971 70.4579 47.1905 70.3103 47.1974C70.2194 47.2017 68.6347 47.5409 66.7889 47.9511ZM68.6323 51.8278C67.159 52.1631 58.8441 53.9997 55.9884 54.6205L54.7831 54.8826V55.9016C54.7831 56.6749 54.8116 56.9113 54.9013 56.8813C54.9663 56.8596 56.1893 56.5863 57.6191 56.2739C60.0371 55.7458 65.8279 54.474 68.9354 53.7887C69.674 53.6258 70.32 53.4667 70.371 53.4352C70.422 53.4037 70.4724 52.9533 70.4829 52.4344C70.4981 51.6888 70.4746 51.4879 70.3707 51.4765C70.2985 51.4686 69.5162 51.6266 68.6323 51.8278ZM33.6818 55.606C33.0692 55.7092 32.4213 56.0495 31.9613 56.5094C30.4232 58.0475 30.8356 60.6137 32.7835 61.6261C33.2235 61.8548 33.4006 61.8864 34.4269 61.9192L35.5773 61.956L35.5353 61.592C35.4774 61.0893 35.0255 55.8215 35.0255 55.6487C35.0255 55.4914 34.4672 55.4737 33.6818 55.606ZM37.2702 55.5796C37.2508 55.6186 37.326 56.6502 37.4371 57.872C37.5903 59.5563 37.6544 59.9907 37.7022 59.6682C37.7615 59.2666 38.0506 55.9268 38.0506 55.6416C38.0506 55.5499 37.9351 55.5087 37.678 55.5087C37.4731 55.5087 37.2896 55.5405 37.2702 55.5796ZM68.1597 56.2186C66.9638 56.4915 64.0923 57.13 61.7786 57.6374C59.4649 58.1448 56.955 58.6959 56.2011 58.862L54.8304 59.1639L54.8034 60.1834L54.7765 61.2028L54.9925 61.149C55.1113 61.1194 56.272 60.8615 57.5719 60.5757C58.8717 60.2898 61.7644 59.6533 64.0002 59.1612C66.2359 58.6689 68.6076 58.1482 69.2704 58.0041L70.4757 57.7418V56.8143C70.4757 56.3042 70.479 55.856 70.4828 55.8183C70.4958 55.6935 70.3507 55.7185 68.1597 56.2186ZM68.7269 60.3826C66.3924 60.9065 54.8623 63.4495 54.8212 63.4495C54.8002 63.4495 54.7831 63.8962 54.7831 64.4421C54.7831 65.1016 54.8181 65.4347 54.8872 65.4347C54.9882 65.4347 57.3155 64.9256 66.1574 62.9691C68.4879 62.4534 70.4128 62.0315 70.4351 62.0315C70.4575 62.0315 70.4757 61.5848 70.4757 61.0389C70.4757 60.1532 70.458 60.0472 70.3103 60.0553C70.2194 60.0602 69.5068 60.2075 68.7269 60.3826ZM68.0651 64.8195C66.8173 65.0968 64.0327 65.712 61.8772 66.1867C59.7217 66.6612 57.937 67.0706 57.911 67.0964C57.8852 67.1223 60.4146 67.1312 63.5318 67.1163C68.6043 67.0919 69.2293 67.0726 69.4831 66.932C69.8508 66.7285 70.2499 66.3038 70.3684 65.9898C70.4912 65.6646 70.5323 64.3642 70.4205 64.3366C70.3729 64.3249 69.313 64.5421 68.0651 64.8195ZM58.2809 70.0669V70.8232H62.6294H66.978V70.0669V69.3106H62.6294H58.2809V70.0669Z" fill="white"/>
<path fill-rule="evenodd" clip-rule="evenodd" d="M35.8335 65.0979C36.0063 67.2626 36.5488 73.3827 36.5908 73.5647C36.6698 73.9068 37.0905 74.3098 37.4367 74.3747C37.821 74.4468 38.3649 74.2214 38.573 73.9039C38.7005 73.7093 38.8068 72.7895 39.1012 69.3348C39.2128 68.0248 39.3204 66.7911 39.3993 65.91L39.383 65.8967L39.7459 61.937H39.7297L39.7854 61.4407C39.8161 61.1678 39.9288 59.8596 40.0359 58.5338C40.143 57.2079 40.2524 55.9849 40.279 55.8159L40.3273 55.5087H40.3352L40.5401 53.2735C40.5185 53.2614 40.5068 53.2467 40.5066 53.2293C40.5049 53.0209 41.1659 45.2954 41.2236 44.8498L41.2756 44.4478L41.3481 44.459L41.5518 42.237C41.4902 42.2199 41.4534 42.2033 41.4535 42.1899C41.4538 42.1312 41.967 36.174 42.079 34.9278L42.1402 34.2463L42.286 34.2273L42.4953 31.9434L42.3354 31.9724L42.3749 31.4748C42.4258 30.8333 42.1997 29.7705 41.8633 29.0706C41.5425 28.4032 40.5619 27.3922 39.8862 27.0322C37.8218 25.9323 35.0748 26.5792 33.8181 28.4611C33.2249 29.3494 33.0224 29.9743 32.9681 31.0831L32.9213 32.0398L32.671 32.066L32.671 32.2427L32.8761 34.2527C33.0563 34.2413 33.1509 34.2761 33.1744 34.3567C33.1933 34.4218 33.3425 36.1127 33.506 38.1144C33.6694 40.1162 33.8122 41.857 33.8232 41.983C33.8351 42.1196 33.8348 42.1745 33.6862 42.1917L33.9185 44.4688C34.0569 44.4918 34.0794 44.5383 34.0794 44.6319C34.0794 44.8583 34.7176 52.3764 34.7841 52.9326L34.8321 53.3344L34.8232 53.3344L35.9796 64.6678L35.8335 65.0979ZM37.0779 28.7597C36.5326 28.895 36.2336 29.0792 35.8061 29.5429C35.2652 30.1297 35.0295 30.93 35.1784 31.6743L35.2375 31.9697H36.5153L36.5543 31.3563C36.6003 30.6353 36.8174 30.2757 37.3057 30.1119C37.9444 29.8976 38.5154 30.2175 38.7035 30.8946C38.8345 31.3666 38.8381 35.5851 38.7078 36.0541C38.5277 36.7023 37.7902 37.0403 37.1837 36.7525C36.6909 36.5187 36.5976 36.2895 36.5545 35.2075L36.5159 34.2385H35.9594C35.6533 34.2385 35.4029 34.2723 35.4029 34.3135C35.4029 34.3818 36.5035 47.1602 36.8844 51.5146L37.0436 53.3344H38.2303L38.2781 53.0272C38.3043 52.8582 38.3489 52.4434 38.377 52.1055C38.5138 50.4648 39.3329 40.929 39.7077 36.6126C40.1837 31.1321 40.1979 30.7585 39.9509 30.2147C39.4457 29.1023 38.2131 28.4781 37.0779 28.7597ZM37.2695 55.5796C37.2501 55.6186 37.3253 56.6502 37.4363 57.872C37.5896 59.5563 37.6537 59.9907 37.7014 59.6682C37.7608 59.2666 38.0499 55.9268 38.0499 55.6416C38.0499 55.5499 37.9343 55.5087 37.6773 55.5087C37.4724 55.5087 37.2889 55.5405 37.2695 55.5796Z" fill="#F09321"/>
</g>
<defs>
<clipPath id="clip0_130_819">
<rect width="65.3061" height="65.3061" fill="white" transform="translate(17.3467 17.3501)"/>
</clipPath>
</defs>
</svg>
