<svg width="100" height="100" viewBox="0 0 100 100" fill="none" xmlns="http://www.w3.org/2000/svg">
<path fill-rule="evenodd" clip-rule="evenodd" d="M36.4497 59.5996L47.5107 61.4407C47.9667 61.5254 48.6804 61.6793 49.1084 61.7125C49.1084 62.2406 49.1088 62.7689 49.1084 63.2971C49.1071 64.8954 48.5948 64.6176 51.7535 64.6176C52.2147 64.6176 52.0372 63.7084 52.0369 63.2971C52.0365 62.7689 52.0369 62.2406 52.0369 61.7125L64.6956 59.5996V69.8117H36.4497V59.5996ZM36.4497 51.4124H64.6956V56.8705L50.6079 59.2147C50.2994 59.2217 49.3135 59.0052 48.8795 58.9326C47.4278 58.6894 37.0527 56.8705 36.4497 56.8705V51.4124ZM46.3688 46.9226C47.4756 46.8368 49.2738 45.5977 52.794 46.3932C53.3745 46.5244 54.2843 46.8844 54.7765 46.9226V48.6833H46.3688V46.9226ZM43.4403 45.2499V48.6833H33.6157V72.4527H67.5297V48.6833H57.705V45.2499C56.9926 45.0953 55.7841 44.1775 52.6437 43.628C50.4196 43.2389 48.9432 43.4527 46.7463 44.0171C45.3867 44.3664 43.7973 45.1724 43.4403 45.2499Z" fill="#F09321"/>
<path fill-rule="evenodd" clip-rule="evenodd" d="M69.1355 42.6973C68.7084 42.6642 67.5595 42.2101 67.2455 42.2096C66.8949 42.2091 65.9769 42.6492 65.3568 42.6973C65.3568 40.6708 65.5708 41.2053 64.6962 40.0557C64.5539 39.8687 64.2862 39.5719 64.2232 39.352C65.9791 38.9708 66.0534 38.8102 66.6248 38.0686C66.8113 37.8266 67.0727 37.6029 67.1517 37.3272C67.409 37.3912 67.3852 37.4351 67.5218 37.5985L68.3621 38.6641C68.5869 38.8809 68.9383 38.9249 69.2888 39.0331C69.6743 39.1521 69.9918 39.2713 70.3636 39.352L69.6623 40.2831C69.0347 41.0773 69.1355 41.2141 69.1355 42.6973ZM59.5942 37.9434L62.0504 41.2007C62.358 41.5961 62.4137 41.5803 62.4298 42.2557C62.4412 42.7335 62.5266 42.9928 62.5234 43.5771C62.5182 44.5159 62.5228 45.4558 62.5228 46.3948C62.7613 46.2881 67.2034 45.0267 67.2455 45.0267C67.4238 45.027 71.6478 46.2509 71.9696 46.3948C71.9696 45.8867 72.0687 45.7277 72.0662 45.1643L72.0601 42.3414C72.0558 41.7105 72.1327 41.6339 72.4268 41.2747C72.6569 40.9937 74.8103 38.2499 74.8981 37.9434C74.1204 37.7746 73.2083 37.4335 72.4063 37.1843C71.7947 36.9943 70.4051 36.6796 70.0621 36.2876L67.6088 33.2037C67.4394 32.962 67.4837 32.92 67.1517 32.8374L64.4168 36.3631C64.1134 36.6752 62.571 37.029 62.0849 37.1832C61.4728 37.3774 60.1919 37.8971 59.5942 37.9434Z" fill="white"/>
<path fill-rule="evenodd" clip-rule="evenodd" d="M31.065 39.352C31.4121 39.2766 32.8142 38.8775 33.02 38.7088L33.8677 37.6501C34.0187 37.4599 34.0103 37.3935 34.277 37.3272L35.3392 38.7142C35.5196 38.8396 36.9137 39.2886 37.2055 39.352C36.9562 40.2218 36.0537 40.2187 36.069 41.5501C36.0733 41.9325 36.0719 42.3149 36.0719 42.6973C35.5211 42.6546 34.5089 42.2088 34.1825 42.209C33.8308 42.2093 32.814 42.6569 32.2931 42.6973C32.2931 40.35 32.2503 41.0014 31.065 39.352ZM26.5306 37.9434C26.6276 38.2821 28.0229 39.997 28.3399 40.395C28.569 40.6827 28.7198 40.9319 28.9605 41.2252C29.5516 41.9456 29.3646 42.3584 29.3646 43.6657C29.3646 44.1356 29.3663 44.6055 29.3634 45.0754C29.3597 45.6657 29.4591 45.8811 29.4591 46.3948C29.7434 46.2676 34.0625 45.0263 34.1825 45.0262C34.2648 45.0261 38.6429 46.2771 38.9059 46.3948C38.9059 45.4851 38.9103 44.5746 38.9053 43.6651C38.9021 43.0814 38.9912 42.817 39.0006 42.3453C39.0184 41.4528 39.1524 41.4524 39.9716 40.4332L41.8344 37.9434L37.5681 36.637C36.8751 36.4325 37.0041 36.3422 36.3283 35.5035L34.9651 33.7807C34.7603 33.5264 34.3575 33.1185 34.277 32.8374C34.0103 32.9038 34.0187 32.9701 33.8677 33.1603C33.7259 33.3389 33.6422 33.4498 33.5076 33.617L31.3665 36.2876C31.0783 36.617 30.7325 36.6539 30.2974 36.7878L26.5306 37.9434Z" fill="white"/>
<path fill-rule="evenodd" clip-rule="evenodd" d="M47.5019 34.0693C49.5051 33.6344 49.488 33.4876 50.5249 32.0445C50.9056 32.282 51.3868 33.1379 51.6985 33.4158C51.9095 33.604 53.302 33.9954 53.6424 34.0693C53.4756 34.363 53.3868 34.4297 53.1878 34.7021C52.2556 35.9785 52.5088 35.4054 52.5088 37.5026C52.3378 37.4262 50.7893 36.9498 50.6037 36.941C50.4535 36.9338 48.8765 37.3949 48.6356 37.5026C48.6356 34.3684 48.6074 36.0162 47.5019 34.0693ZM42.9675 32.6607C43.0787 33.1058 45.0654 35.552 45.3839 35.9551C45.6256 36.2609 45.7962 36.3838 45.8086 36.8798L45.8015 41.1121L50.5406 39.7581C50.8204 39.7454 54.6152 40.9541 55.3428 41.1121L55.3365 36.9686C55.3391 36.1804 56.2452 35.3697 56.9867 34.3687C57.2158 34.0594 57.3951 33.8262 57.6107 33.5417C57.8258 33.2579 58.079 33.052 58.1768 32.6607C57.418 32.496 56.5385 32.1663 55.7563 31.9232C55.171 31.7414 53.6925 31.3814 53.3819 31.0547C52.9708 30.6222 50.99 27.8449 50.5249 27.5547L47.7614 31.0538C47.4689 31.3595 43.5887 32.5258 42.9675 32.6607Z" fill="white"/>
</svg>
