<svg width="25" height="24" viewBox="0 0 25 24" fill="none" xmlns="http://www.w3.org/2000/svg">
<path fill-rule="evenodd" clip-rule="evenodd" d="M11.1663 5.33473V10.6695H8.49877H5.83124L9.14835 14.6497C10.9727 16.8388 12.481 18.6299 12.5 18.6299C12.519 18.6299 14.0273 16.8388 15.8517 14.6497L19.1688 10.6695H16.5013H13.8337V5.33473V0H12.5H11.1663V5.33473ZM0.497596 18.1402C0.498429 22.0268 0.492136 21.9331 0.792798 22.5429C1.08983 23.1456 1.63881 23.6185 2.33758 23.8738L2.64328 23.9854L12.3647 23.9963C20.8304 24.0059 22.1252 23.9993 22.3882 23.9454C23.1424 23.7908 23.8558 23.2413 24.203 22.5476C24.5082 21.9377 24.5016 22.0346 24.5024 18.1402L24.5032 14.6705H23.1695H21.8358V18.0047V21.3389H12.5H3.16425V18.0047V14.6705H1.83057H0.496887L0.497596 18.1402Z" fill="black"/>
</svg>
