<svg width="11" height="21" viewBox="0 0 11 21" fill="none" xmlns="http://www.w3.org/2000/svg">
<path d="M0.777344 16.6855L0.800486 5.17558C0.829668 3.91925 1.34924 2.7242 2.2481 1.84598C3.14695 0.967755 4.35375 0.476074 5.61042 0.476074C6.86708 0.476074 8.07388 0.967755 8.97273 1.84598C9.87159 2.7242 10.3912 3.91925 10.4203 5.17558L10.4203 15.1117C10.4203 15.3163 10.3391 15.5125 10.1944 15.6572C10.0497 15.8019 9.85351 15.8832 9.64891 15.8832C9.44431 15.8832 9.24809 15.8019 9.10342 15.6572C8.95874 15.5125 8.87747 15.3163 8.87747 15.1117L8.89289 5.17558C8.89289 4.30399 8.54666 3.46809 7.93035 2.85179C7.31404 2.23548 6.47815 1.88924 5.60656 1.88924C4.73497 1.88924 3.89908 2.23548 3.28277 2.85179C2.66646 3.46809 2.32022 4.30399 2.32022 5.17558L2.31251 16.6778C2.30995 17.289 2.55031 17.8762 2.98072 18.3102C3.41112 18.7442 3.99631 18.9895 4.60755 18.9921C5.21878 18.9946 5.806 18.7543 6.24002 18.3239C6.67404 17.8935 6.91931 17.3083 6.92187 16.697L6.91029 5.47644C6.89751 5.13512 6.75294 4.81204 6.50694 4.57509C6.26095 4.33813 5.93269 4.20575 5.59113 4.20575C5.24957 4.20575 4.92131 4.33813 4.67532 4.57509C4.42932 4.81204 4.28475 5.13512 4.27197 5.47644L4.27583 14.321C4.27329 14.4714 4.22673 14.6177 4.14191 14.7419C4.05709 14.866 3.93773 14.9626 3.79859 15.0197C3.65945 15.0767 3.50664 15.0917 3.35905 15.0629C3.21147 15.034 3.0756 14.9625 2.96823 14.8572C2.89536 14.7861 2.8379 14.7008 2.79941 14.6066C2.76092 14.5123 2.74224 14.4112 2.74452 14.3094L2.74837 5.48029C2.74755 5.10675 2.82053 4.73672 2.9631 4.39145C3.10567 4.04618 3.31504 3.73247 3.57917 3.46834C3.84331 3.2042 4.15702 2.99484 4.50229 2.85226C4.84756 2.70969 5.21758 2.63672 5.59113 2.63754C5.96468 2.63672 6.3347 2.70969 6.67997 2.85226C7.02524 2.99484 7.33895 3.2042 7.60309 3.46834C7.86723 3.73248 8.07659 4.04618 8.21916 4.39145C8.36173 4.73672 8.43471 5.10675 8.43389 5.4803L8.43389 16.6662C8.44168 17.4271 8.22197 18.1729 7.80293 18.8081C7.38389 19.4432 6.78465 19.9387 6.08207 20.2309C5.37949 20.5231 4.60563 20.5988 3.85976 20.4482C3.11389 20.2975 2.43004 19.9275 1.89593 19.3855C1.54132 19.0309 1.26002 18.61 1.06809 18.1467C0.876166 17.6835 0.777369 17.1869 0.777344 16.6855Z" fill="#F09321"/>
</svg>
