<svg width="14" height="16" viewBox="0 0 14 16" fill="none" xmlns="http://www.w3.org/2000/svg">
<g clip-path="url(#clip0_2210_8)">
<g opacity="0.5">
<g clip-path="url(#clip1_2210_8)">
<path fill-rule="evenodd" clip-rule="evenodd" d="M10.2138 10.2219C11.1241 10.5633 12.0533 10.8524 12.9966 11.0877C13.0971 11.1045 13.1924 11.1441 13.2753 11.2034C13.3581 11.2627 13.4263 11.3402 13.4746 11.43C13.5229 11.5197 13.5501 11.6193 13.554 11.7211C13.5579 11.8229 13.5385 11.9243 13.4972 12.0174L13.4002 12.5659C13.3774 12.7723 13.3094 12.9711 13.2009 13.1482C13.0924 13.3252 12.9461 13.4761 12.7725 13.59C12.2248 14.0479 11.6058 14.4131 10.9402 14.671C10.0588 14.7691 9.16661 14.6694 8.32867 14.379C7.49074 14.0886 6.72818 13.6149 6.09652 12.9924C4.48425 11.7315 3.17847 10.1218 2.27716 8.28414C1.79551 7.53124 1.48484 6.68187 1.36706 5.79587C1.24929 4.90988 1.32726 4.00883 1.5955 3.15624C1.97566 2.54996 2.45139 2.00914 3.00424 1.55476C3.1467 1.40562 3.32093 1.29051 3.51397 1.21793C3.70702 1.14535 3.91392 1.11719 4.11935 1.13554L4.67441 1.14504C4.77416 1.12911 4.87621 1.13567 4.97311 1.16423C5.07001 1.1928 5.15929 1.24265 5.23445 1.31015C5.30961 1.37764 5.36875 1.46108 5.40753 1.55436C5.44632 1.64764 5.46375 1.74842 5.4586 1.8493C5.56947 2.99319 5.63668 3.81723 5.7735 4.74829C5.8009 4.89901 5.77024 5.0545 5.68767 5.18353C5.6051 5.31256 5.47675 5.40556 5.32841 5.44381L4.76385 5.79597C4.57428 5.86282 4.41784 6.00031 4.32721 6.17973C4.23658 6.35915 4.21874 6.56664 4.27742 6.7589C4.60039 7.70728 5.08389 8.59314 5.70678 9.37784C6.34376 10.1469 7.10927 10.7998 7.96928 11.3074C8.1459 11.4035 8.35334 11.426 8.54645 11.3699C8.73957 11.3139 8.90271 11.1839 9.00044 11.0081L9.45411 10.5208C9.52011 10.3841 9.63473 10.2771 9.77556 10.2205C9.91639 10.1639 10.0733 10.162 10.2155 10.215L10.2138 10.2219Z" fill="white"/>
</g>
</g>
</g>
<defs>
<clipPath id="clip0_2210_8">
<rect width="14" height="16" fill="white"/>
</clipPath>
<clipPath id="clip1_2210_8">
<rect width="7.04944" height="18.3286" fill="white" transform="translate(-1.90991 3.75684) rotate(-39.382)"/>
</clipPath>
</defs>
</svg>
