<svg width="15" height="12" viewBox="0 0 15 12" fill="none" xmlns="http://www.w3.org/2000/svg">
<g opacity="0.5">
<path fill-rule="evenodd" clip-rule="evenodd" d="M11.4708 11.4705H2.54925C1.87321 11.4705 1.22486 11.202 0.746829 10.7239C0.268797 10.2459 0.000244141 9.59756 0.000244141 8.92152V2.54901C0.000244141 1.87297 0.268797 1.22462 0.746829 0.746585C1.22486 0.268553 1.87321 0 2.54925 0H11.4708C12.1468 0 12.7952 0.268553 13.2732 0.746585C13.7512 1.22462 14.0198 1.87297 14.0198 2.54901V8.92152C14.0198 9.59756 13.7512 10.2459 13.2732 10.7239C12.7952 11.202 12.1468 11.4705 11.4708 11.4705ZM11.4708 8.92152V5.0483L7.64726 7.64702H6.37276L2.54925 5.05213V8.92152H11.4708ZM3.01571 2.54901L7.02401 5.19869L11.0043 2.54901H3.01571Z" fill="white"/>
</g>
</svg>
