<svg width="13" height="17" viewBox="0 0 13 17" fill="none" xmlns="http://www.w3.org/2000/svg">
<g opacity="0.5">
<path fill-rule="evenodd" clip-rule="evenodd" d="M11.1188 10.1999L11.1394 10.2355L6.15115 16.1709L1.12331 10.1591L1.13424 10.1425C0.395395 9.14864 -0.000295803 7.96805 1.65913e-07 6.7587C1.65913e-07 5.23761 0.647889 3.77883 1.8012 2.70326C2.95452 1.62769 4.51878 1.02344 6.14981 1.02344C7.78084 1.02344 9.34502 1.62769 10.4983 2.70326C11.6516 3.77883 12.2996 5.23761 12.2996 6.7587C12.299 7.9923 11.8862 9.19508 11.1188 10.1999ZM6.15115 3.42588C5.24502 3.42588 4.37601 3.76157 3.73528 4.35911C3.09455 4.95665 2.73458 5.76709 2.73458 6.61213C2.73782 7.15424 2.89127 7.68636 3.18009 8.15683L3.16099 8.18487L6.14155 12.4366L8.92126 8.46399C8.96636 8.40536 9.00738 8.34418 9.04838 8.283L9.13855 8.15556L9.12904 8.14409C9.41222 7.67739 9.56277 7.15091 9.56637 6.61468C9.56673 6.19615 9.47866 5.78165 9.30721 5.39487C9.13576 5.00808 8.88424 4.65658 8.56709 4.36046C8.24995 4.06434 7.87333 3.82939 7.4588 3.66903C7.04426 3.50867 6.59993 3.42605 6.15115 3.42588Z" fill="white"/>
</g>
</svg>
