<svg width="17" height="17" viewBox="0 0 17 17" fill="none" xmlns="http://www.w3.org/2000/svg">
<g opacity="0.5">
<g clip-path="url(#clip0_130_1566)">
<path d="M7.99963 17C3.5883 17 -0.000366211 13.4113 -0.000366211 9C-0.000366211 4.58867 3.5883 1 7.99963 1C12.411 1 15.9996 4.58867 15.9996 9C15.9996 13.4113 12.411 17 7.99963 17ZM7.99963 3C4.69163 3 1.99963 5.69133 1.99963 9C1.99963 12.3087 4.69163 15 7.99963 15C11.3076 15 13.9996 12.3087 13.9996 9C13.9996 5.69133 11.3083 3 7.99963 3ZM10.6663 8.33333H8.6663V5H6.6663V10.3333H10.6663V8.33333Z" fill="white"/>
</g>
</g>
<defs>
<clipPath id="clip0_130_1566">
<rect width="16" height="16" fill="white" transform="translate(-0.000366211 1)"/>
</clipPath>
</defs>
</svg>
