<svg width="64" height="64" viewBox="0 0 64 64" fill="none" xmlns="http://www.w3.org/2000/svg">
<path d="M39.7129 40.7646H28.2676V43.7898H39.7129V40.7646Z" fill="#333333"/>
<path d="M19.0432 40.7646H13.7997C12.9642 40.7646 12.2871 41.4418 12.2871 42.2772C12.2871 43.1127 12.9643 43.7898 13.7997 43.7898H19.0433C19.8788 43.7898 20.5559 43.1126 20.5559 42.2772C20.5559 41.4417 19.8787 40.7646 19.0432 40.7646Z" fill="#333333"/>
<path d="M44.2535 36.1758C40.9173 36.1758 38.2031 38.8899 38.2031 42.2262C38.2031 45.5624 40.9173 48.2766 44.2535 48.2766C47.5903 48.2766 50.3039 45.5624 50.3039 42.2262C50.3039 38.8899 47.5898 36.1758 44.2535 36.1758ZM44.2535 45.2514C42.5852 45.2514 41.2283 43.8945 41.2283 42.2262C41.2283 40.5578 42.5852 39.201 44.2535 39.201C45.9219 39.201 47.2787 40.5578 47.2787 42.2262C47.2787 43.8946 45.9219 45.2514 44.2535 45.2514Z" fill="#333333"/>
<path d="M23.5777 36.1758C20.2415 36.1758 17.5273 38.8899 17.5273 42.2262C17.5273 45.5624 20.2415 48.2766 23.5777 48.2766C26.914 48.2766 29.6281 45.5624 29.6281 42.2262C29.6281 38.8899 26.914 36.1758 23.5777 36.1758ZM23.5777 45.2514C21.9094 45.2514 20.5525 43.8945 20.5525 42.2262C20.5525 40.5578 21.9094 39.201 23.5777 39.201C25.2456 39.201 26.6029 40.5578 26.6029 42.2262C26.6029 43.8946 25.2461 45.2514 23.5777 45.2514Z" fill="#333333"/>
<path d="M48.3259 18.8579C48.0688 18.3471 47.5459 18.0249 46.9742 18.0249H39.0078V21.0501H46.0414L50.1601 29.2423L52.8637 27.8829L48.3259 18.8579Z" fill="#333333"/>
<path d="M55.6834 31.5175L52.7082 27.6856C52.4223 27.3165 51.9811 27.1007 51.5137 27.1007H40.5222V16.5126C40.5222 15.6771 39.845 15 39.0096 15H13.7997C12.9642 15 12.2871 15.6772 12.2871 16.5126C12.2871 17.348 12.9643 18.0251 13.7997 18.0251H37.497V28.6132C37.497 29.4487 38.1741 30.1258 39.0095 30.1258H50.773L52.9758 32.9634V40.7644H48.7909C47.9554 40.7644 47.2784 41.4415 47.2784 42.2769C47.2784 43.1124 47.9555 43.7895 48.7909 43.7895H54.4884C55.3239 43.7895 56.0009 43.1123 56.001 42.2769V32.4452C56.001 32.1094 55.8891 31.7827 55.6834 31.5175Z" fill="#333333"/>
<path d="M18.9432 33.1006H11.9852C11.1497 33.1006 10.4727 33.7777 10.4727 34.6131C10.4727 35.4486 11.1498 36.1257 11.9852 36.1257H18.9431C19.7786 36.1257 20.4556 35.4485 20.4556 34.6131C20.4557 33.7777 19.7786 33.1006 18.9432 33.1006Z" fill="#F09321"/>
<path d="M22.42 27.1514H9.51255C8.67715 27.1514 8 27.8285 8 28.664C8 29.4995 8.67715 30.1766 9.51255 30.1766H22.42C23.2555 30.1766 23.9326 29.4994 23.9326 28.664C23.9326 27.8286 23.2555 27.1514 22.42 27.1514Z" fill="#F09321"/>
<path d="M24.8927 21.2012H11.9852C11.1497 21.2012 10.4727 21.8783 10.4727 22.7137C10.4727 23.5492 11.1498 24.2263 11.9852 24.2263H24.8927C25.7282 24.2263 26.4053 23.5491 26.4053 22.7137C26.4054 21.8783 25.7282 21.2012 24.8927 21.2012Z" fill="#F09321"/>
</svg>
