<svg width="64" height="64" viewBox="0 0 64 64" fill="none" xmlns="http://www.w3.org/2000/svg">
<g clip-path="url(#clip0_258_7666)">
<path d="M19.6523 43.653C20.977 44.9778 20.977 47.1287 19.6523 48.4526C19.016 49.0898 18.6582 49.9528 18.6582 50.8528C18.6582 52.7259 20.1795 54.2471 22.0525 54.2471C22.9525 54.2471 23.8156 53.8894 24.452 53.253C25.7767 51.9282 27.9276 51.9282 29.2524 53.253C30.5771 54.5778 32.7274 54.5778 34.052 53.253C35.3767 51.9282 37.5277 51.9282 38.8525 53.253C40.1765 54.5778 42.3274 54.5778 43.6521 53.253C44.9768 51.9282 47.1271 51.9282 48.4518 53.253C49.0881 53.8894 49.952 54.2471 50.852 54.2471C52.7251 54.2472 54.2456 52.726 54.2456 50.8529C54.2456 49.9529 53.8886 49.0899 53.2522 48.4527C51.9275 47.1287 51.9275 44.9778 53.2522 43.6531C54.5763 42.3283 54.5763 40.1774 53.2522 38.8535C51.9275 37.5287 51.9275 35.3778 53.2522 34.053C54.5763 32.729 54.5763 30.5781 53.2522 29.2534C51.9275 27.9286 51.9275 25.7777 53.2522 24.4537C53.8886 23.8173 54.2456 22.9535 54.2456 22.0535C54.2456 20.1805 52.7251 18.6592 50.852 18.6592C49.952 18.6592 49.0882 19.0169 48.4519 19.6533C47.1272 20.9781 44.9769 20.9781 43.6522 19.6533" stroke="#F09321" stroke-width="3" stroke-miterlimit="10" stroke-linecap="round" stroke-linejoin="round"/>
<path d="M38.853 43.6529C39.4894 44.2892 40.3524 44.647 41.2524 44.647C43.1255 44.647 44.6468 43.1264 44.6468 41.2527C44.6468 40.3527 44.289 39.4896 43.6526 38.8532C42.3278 37.5284 42.3278 35.3775 43.6526 34.0528C44.9773 32.7287 44.9773 30.5778 43.6526 29.2531C42.3278 27.9284 42.3278 25.7774 43.6526 24.4534C44.9773 23.1286 44.9773 20.9777 43.6526 19.653C42.3278 18.329 42.3278 16.1781 43.6526 14.8534C44.289 14.217 44.6468 13.354 44.6468 12.4532C44.6468 10.5801 43.1255 9.05957 41.2524 9.05957C40.3524 9.05957 39.4894 9.41732 38.853 10.0537C37.5282 11.3777 35.3773 11.3777 34.0525 10.0537C32.7278 8.72891 30.5776 8.72891 29.2529 10.0537C27.9281 11.3777 25.7772 11.3777 24.4524 10.0537C23.1284 8.72891 20.9775 8.72891 19.6528 10.0537C18.328 11.3777 16.1779 11.3777 14.8532 10.0537C14.2167 9.41732 13.3529 9.05957 12.4529 9.05957C10.5799 9.05957 9.05859 10.5801 9.05859 12.4531C9.05859 13.3539 9.41634 14.2169 10.0527 14.8533C11.3775 16.1781 11.3775 18.329 10.0527 19.6529C8.72869 20.9777 8.72869 23.1286 10.0527 24.4533C11.3775 25.7774 11.3775 27.9283 10.0527 29.253C8.72869 30.5778 8.72869 32.7287 10.0527 34.0527C11.3775 35.3774 11.3775 37.5284 10.0527 38.8531C9.41634 39.4896 9.05859 40.3527 9.05859 41.2527C9.05859 43.1264 10.5799 44.647 12.4529 44.647C13.3529 44.647 14.2167 44.2892 14.8531 43.6529C16.1778 42.3281 18.3279 42.3281 19.6527 43.6529C20.9774 44.9776 23.1284 44.9776 24.4523 43.6529C25.7771 42.3281 27.928 42.3281 29.2528 43.6529C30.5775 44.9776 32.7278 44.9776 34.0524 43.6529C35.3771 42.3281 37.5282 42.3282 38.853 43.6529Z" stroke="#333333" stroke-width="3" stroke-miterlimit="10" stroke-linecap="round" stroke-linejoin="round"/>
<path d="M10.0527 38.8532L38.853 10.0537" stroke="#333333" stroke-width="3" stroke-miterlimit="10" stroke-linecap="round" stroke-linejoin="round"/>
<path d="M14.8535 43.653L43.653 14.8535" stroke="#333333" stroke-width="3" stroke-miterlimit="10" stroke-linecap="round" stroke-linejoin="round"/>
<path d="M10.0527 29.2531L29.2529 10.0537" stroke="#333333" stroke-width="3" stroke-miterlimit="10" stroke-linecap="round" stroke-linejoin="round"/>
<path d="M24.5039 43.7035L43.7032 24.5034" stroke="#333333" stroke-width="3" stroke-miterlimit="10" stroke-linecap="round" stroke-linejoin="round"/>
<path d="M10.0527 19.6538L19.6528 10.0537" stroke="#333333" stroke-width="3" stroke-miterlimit="10" stroke-linecap="round" stroke-linejoin="round"/>
<path d="M34.0527 43.6528L43.6528 34.0527" stroke="#333333" stroke-width="3" stroke-miterlimit="10" stroke-linecap="round" stroke-linejoin="round"/>
</g>
<defs>
<clipPath id="clip0_258_7666">
<rect width="48" height="48" fill="white" transform="translate(7.65234 7.65332)"/>
</clipPath>
</defs>
</svg>
