<svg width="64" height="64" viewBox="0 0 64 64" fill="none" xmlns="http://www.w3.org/2000/svg">
<g clip-path="url(#clip0_258_7655)">
<path fill-rule="evenodd" clip-rule="evenodd" d="M40.6523 11.1533H33.1523V9.65332C33.1523 8.82532 32.4803 8.15332 31.6523 8.15332C30.8243 8.15332 30.1523 8.82532 30.1523 9.65332V11.1533H22.6523V9.65332C22.6523 8.82532 21.9803 8.15332 21.1523 8.15332C20.3243 8.15332 19.6523 8.82532 19.6523 9.65332V11.1533H11.4524C10.5779 11.1533 9.73786 11.5013 9.11836 12.1193C8.50036 12.7388 8.15234 13.5788 8.15234 14.4533V51.8533C8.15234 52.7278 8.50036 53.5678 9.11836 54.1873C9.73786 54.8053 10.5779 55.1533 11.4524 55.1533H51.8523C52.7268 55.1533 53.5668 54.8053 54.1863 54.1873C54.8043 53.5678 55.1523 52.7278 55.1523 51.8533V14.4533C55.1523 13.5788 54.8043 12.7388 54.1863 12.1193C53.5668 11.5013 52.7268 11.1533 51.8523 11.1533H43.6523V9.65332C43.6523 8.82532 42.9803 8.15332 42.1523 8.15332C41.3243 8.15332 40.6523 8.82532 40.6523 9.65332V11.1533ZM19.6523 14.1533H11.4524C11.3729 14.1533 11.2963 14.1848 11.2408 14.2418C11.1838 14.2973 11.1523 14.3738 11.1523 14.4533V51.8533C11.1523 51.9328 11.1838 52.0093 11.2408 52.0648C11.2963 52.1218 11.3729 52.1533 11.4524 52.1533H51.8523C51.9318 52.1533 52.0084 52.1218 52.0639 52.0648C52.1209 52.0093 52.1523 51.9328 52.1523 51.8533V14.4533C52.1523 14.3738 52.1209 14.2973 52.0639 14.2418C52.0084 14.1848 51.9318 14.1533 51.8523 14.1533H43.6523V15.6533C43.6523 16.4813 42.9803 17.1533 42.1523 17.1533C41.3243 17.1533 40.6523 16.4813 40.6523 15.6533V14.1533H33.1523V15.6533C33.1523 16.4813 32.4803 17.1533 31.6523 17.1533C30.8243 17.1533 30.1523 16.4813 30.1523 15.6533V14.1533H22.6523V15.6533C22.6523 16.4813 21.9803 17.1533 21.1523 17.1533C20.3243 17.1533 19.6523 16.4813 19.6523 15.6533V14.1533Z" fill="#333333"/>
<path fill-rule="evenodd" clip-rule="evenodd" d="M31.5419 21.1348C24.0927 21.1348 18.043 27.1845 18.043 34.6337C18.043 42.0829 24.0927 48.1327 31.5419 48.1327C38.9911 48.1327 45.0408 42.0829 45.0408 34.6337C45.0408 27.1845 38.9911 21.1348 31.5419 21.1348ZM31.5419 24.1357C37.3365 24.1357 42.04 28.8391 42.04 34.6337C42.04 40.4284 37.3365 45.1318 31.5419 45.1318C25.7473 45.1318 21.0438 40.4284 21.0438 34.6337C21.0438 28.8391 25.7473 24.1357 31.5419 24.1357Z" fill="#F09321"/>
<path fill-rule="evenodd" clip-rule="evenodd" d="M30.1519 28.6533V34.2378L28.1164 37.6323C27.6904 38.3418 27.9199 39.2643 28.6309 39.6888C29.3404 40.1148 30.2629 39.8853 30.6874 39.1743L32.9374 35.4243C33.0784 35.1918 33.1519 34.9248 33.1519 34.6533V28.6533C33.1519 27.8253 32.4799 27.1533 31.6519 27.1533C30.8239 27.1533 30.1519 27.8253 30.1519 28.6533Z" fill="#F09321"/>
</g>
<defs>
<clipPath id="clip0_258_7655">
<rect width="48" height="48" fill="white" transform="translate(7.65234 7.65332)"/>
</clipPath>
</defs>
</svg>
