<svg width="64" height="64" viewBox="0 0 64 64" fill="none" xmlns="http://www.w3.org/2000/svg">
<g clip-path="url(#clip0_258_7647)">
<path d="M42.3563 8.44592L40.0827 6.86853L35.5985 13.332L33.2184 11.6806L17.254 15.7904L0.315597 40.2046L25.0768 57.3839L42.0153 32.9697L40.2754 16.5768L37.8722 14.9094L42.3563 8.44592ZM37.6573 18.1284L39.1548 32.2379L24.3806 53.5329L4.16667 39.5084L18.9408 18.2138L32.6817 14.6764L34.0211 15.6057L31.5246 19.2041C29.8759 18.7555 28.0487 19.3595 27.0205 20.8416C25.7157 22.7222 26.1842 25.3134 28.0648 26.6182C29.005 27.2705 30.123 27.4795 31.1689 27.2905C32.2149 27.1014 33.189 26.5141 33.8412 25.5739C34.8695 24.0918 34.7956 22.1688 33.7981 20.7816L36.2946 17.1831L37.6573 18.1284ZM31.5676 23.9964C31.1326 24.6233 30.269 24.7793 29.6421 24.3445C29.0152 23.9096 28.859 23.0458 29.2939 22.4189C29.5115 22.1055 29.8361 21.9097 30.1847 21.8467C30.5334 21.7836 30.906 21.8534 31.2194 22.0708C31.8464 22.5057 32.0026 23.3695 31.5676 23.9964Z" fill="#333333"/>
<path d="M43.7453 7.88906L40.9783 7.91888L41.063 15.7851L38.1664 15.8163L27.5276 28.4086L27.8477 58.1216L57.9831 57.7969L57.6629 28.0839L46.7551 15.7237L43.8302 15.7553L43.7453 7.88906ZM45.5183 18.5045L54.9068 29.143L55.1862 55.0596L30.585 55.3247L30.3057 29.4083L39.4629 18.5698L41.093 18.5523L41.1402 22.9317C39.5361 23.5202 38.3958 25.0704 38.4153 26.8741C38.4399 29.1628 40.3219 31.0047 42.6106 30.98C43.7549 30.9677 44.7876 30.491 45.531 29.7314C46.2745 28.9717 46.7288 27.929 46.7164 26.7847C46.697 24.981 45.5237 23.4557 43.9072 22.9019L43.86 18.5225L45.5183 18.5045ZM43.9494 26.8145C43.9575 27.5775 43.3436 28.2046 42.5807 28.213C41.8177 28.2212 41.1904 27.6072 41.1822 26.8443C41.1781 26.4628 41.3295 26.1152 41.5773 25.862C41.8251 25.6088 42.1694 25.45 42.5508 25.4459C43.3138 25.4376 43.9411 26.0515 43.9494 26.8145Z" fill="#F09321"/>
<path d="M45.5165 18.5045L54.905 29.143L55.1844 55.0597L30.5832 55.3247L30.304 29.4083L39.4611 18.5699L41.0912 18.5523L41.1384 22.9317C39.5344 23.5202 38.3941 25.0704 38.4135 26.8741C38.4382 29.1629 40.3201 31.0047 42.6089 30.98C43.7531 30.9678 44.7858 30.491 45.5292 29.7314C46.2727 28.9717 46.7271 27.929 46.7147 26.7847C46.6952 24.981 45.5219 23.4557 43.9054 22.9019L43.8582 18.5225L45.5165 18.5045ZM43.9476 26.8145C43.9557 27.5775 43.3418 28.2046 42.5789 28.213C41.816 28.2212 41.1886 27.6073 41.1804 26.8443C41.1764 26.4629 41.3277 26.1153 41.5755 25.862C41.8233 25.6088 42.1676 25.45 42.549 25.4459C43.312 25.4376 43.9393 26.0516 43.9476 26.8145Z" fill="white"/>
</g>
<defs>
<clipPath id="clip0_258_7647">
<rect width="64" height="64" fill="white"/>
</clipPath>
</defs>
</svg>
