<svg width="98" height="9" viewBox="0 0 98 9" fill="none" xmlns="http://www.w3.org/2000/svg">
<path d="M97.8846 4.55469L91.642 0.950519V8.15886L97.8846 4.55469ZM0.5 5.17895H2.93462V3.93043H0.5V5.17895ZM7.80385 5.17895H12.6731V3.93043H7.80385V5.17895ZM17.5423 5.17895H22.4115V3.93043H17.5423V5.17895ZM27.2808 5.17895H32.15V3.93043H27.2808V5.17895ZM37.0192 5.17895H41.8885V3.93043H37.0192V5.17895ZM46.7577 5.17895H51.6269V3.93043H46.7577V5.17895ZM56.4962 5.17895H61.3654V3.93043H56.4962V5.17895ZM66.2346 5.17895H71.1039V3.93043H66.2346V5.17895ZM75.9731 5.17895H80.8423V3.93043H75.9731V5.17895ZM85.7115 5.17895H90.5808V3.93043H85.7115V5.17895Z" fill="white"/>
</svg>
