<svg width="34" height="34" viewBox="0 0 34 34" fill="none" xmlns="http://www.w3.org/2000/svg">
<path fill-rule="evenodd" clip-rule="evenodd" d="M16.873 0.184711C26.0044 0.184711 33.4061 7.58647 33.4061 16.7178C33.4061 25.8492 26.0044 33.251 16.873 33.251C7.7416 33.251 0.339844 25.8492 0.339844 16.7178C0.339844 7.58647 7.7416 0.184711 16.873 0.184711ZM17.8631 6.9188C18.9873 7.05933 19.896 7.33021 20.8924 7.81667C21.873 8.29613 22.5006 8.75015 23.3305 9.57553C24.1081 10.3551 24.5399 10.9459 24.9971 11.8628C25.6343 13.1416 25.9973 14.6627 26.059 16.3363C26.0819 16.9074 26.0654 17.0345 25.935 17.1979C25.687 17.514 25.1408 17.4619 24.9545 17.1064C24.896 16.9887 24.8795 16.8876 24.8597 16.4311C24.8273 15.7297 24.7784 15.2757 24.6804 14.7339C24.2945 12.61 23.2751 10.9134 21.6472 9.69636C20.2915 8.6783 18.8894 8.18231 17.0529 8.07484C16.4317 8.0386 16.3242 8.01569 16.1837 7.90823C15.9217 7.7022 15.909 7.21955 16.1608 6.99444C16.314 6.85455 16.4215 6.83419 16.9544 6.85073C17.2322 6.86026 17.6411 6.89335 17.8637 6.91942L17.8631 6.9188ZM10.3926 7.27172C10.5071 7.31114 10.6832 7.40206 10.785 7.46756C11.4056 7.87834 13.1346 10.0874 13.6999 11.1907C14.0236 11.8202 14.131 12.287 14.0299 12.6329C13.925 13.0049 13.752 13.2007 12.9775 13.8239C12.6672 14.0751 12.376 14.3326 12.3308 14.4013C12.2132 14.5711 12.1178 14.9037 12.1178 15.1389C12.1216 15.6839 12.4739 16.6727 12.9381 17.4326C13.298 18.0233 13.9415 18.7807 14.5787 19.3612C15.3271 20.0461 15.9872 20.5128 16.7324 20.8816C17.6901 21.3586 18.2751 21.4794 18.7031 21.2797C18.8112 21.2308 18.9256 21.1653 18.9612 21.136C18.9937 21.1068 19.2455 20.8002 19.5202 20.4607C20.0493 19.7949 20.1701 19.6874 20.5331 19.5634C20.9942 19.407 21.4647 19.449 21.9385 19.6906C22.2978 19.8769 23.0818 20.3628 23.5886 20.7151C24.255 21.1818 25.6807 22.3436 25.8727 22.575C26.2129 22.9928 26.2714 23.5282 26.0432 24.1183C25.8015 24.7415 24.8604 25.9103 24.2029 26.4095C23.6083 26.8597 23.1867 27.0326 22.631 27.058C22.1731 27.0816 21.9842 27.0422 21.3992 26.8005C16.8106 24.9119 13.1473 22.0924 10.2394 18.2192C8.71959 16.1958 7.56227 14.098 6.77186 11.9213C6.31084 10.6521 6.2886 10.1008 6.66695 9.45153C6.83038 9.17746 7.52667 8.49834 8.03347 8.11998C8.87603 7.49363 9.26518 7.26151 9.5755 7.19665C9.78788 7.15087 10.1574 7.18714 10.3926 7.27172ZM18.0888 9.28491C20.0728 9.57551 21.6085 10.4957 22.6151 11.99C23.1804 12.8319 23.5333 13.8207 23.6541 14.8808C23.6967 15.2693 23.6967 15.9777 23.6509 16.0953C23.6083 16.2059 23.471 16.356 23.3533 16.4177C23.2261 16.4832 22.9546 16.4768 22.8046 16.3986C22.5527 16.2714 22.4777 16.0686 22.4777 15.5211C22.4777 14.6754 22.2583 13.7851 21.88 13.0926C21.4536 12.3083 20.8236 11.6534 20.0562 11.197C19.3994 10.8053 18.4284 10.5154 17.5432 10.4435C17.2227 10.4174 17.0459 10.352 16.9251 10.2114C16.8348 10.1121 16.7808 9.98509 16.7719 9.85114C16.763 9.71718 16.7998 9.58416 16.8762 9.47377C17.0459 9.20988 17.3079 9.16727 18.0888 9.28491ZM18.7844 11.7484C19.4286 11.8857 19.9221 12.1299 20.3437 12.5254C20.8861 13.0373 21.183 13.6573 21.314 14.5482C21.4024 15.1288 21.3662 15.3577 21.1608 15.5465C20.9675 15.7227 20.6114 15.7297 20.3958 15.5631C20.2387 15.4454 20.1898 15.3214 20.1542 14.9857C20.1115 14.5387 20.0333 14.2251 19.8992 13.9345C19.6117 13.3177 19.1049 12.9985 18.249 12.8936C17.8465 12.8447 17.7257 12.7995 17.5953 12.6456C17.3569 12.362 17.4478 11.9016 17.7785 11.7325C17.9025 11.6701 17.9546 11.6638 18.2293 11.6797C18.4156 11.6907 18.6011 11.7137 18.7844 11.7484Z" fill="white"/>
</svg>
