<svg width="30" height="30" viewBox="0 0 30 30" fill="none" xmlns="http://www.w3.org/2000/svg">
<g clip-path="url(#clip0_195_4038)">
<path d="M23.9594 27.3484C23.9594 28.2784 23.2274 29.0344 22.3274 29.0344H2.83339C1.93339 29.0344 1.20139 28.2784 1.20139 27.3484V26.5264V21.1864V14.4484C1.20139 13.5184 1.93339 12.7624 2.83339 12.7624H14.0654V8.59842V7.05642H11.5334V0.834423H28.2494V7.05042H26.0774V8.04642L29.1554 14.7424C29.4794 15.4504 29.5934 16.6264 28.8314 17.6164L23.9594 23.7664V26.5264V27.3484ZM19.1894 21.1864H22.7594V14.4484C22.7594 14.1784 22.5674 13.9624 22.3274 13.9624H20.2754V18.8344C20.2754 19.7764 19.8494 20.6104 19.1894 21.1864ZM22.7594 22.3864H2.39539V25.3264H22.7594V22.3864ZM2.83339 13.9564C2.59339 13.9564 2.40139 14.1784 2.40139 14.4424V21.1864H15.1514C14.4914 20.6164 14.0654 19.7824 14.0654 18.8404V13.9624H2.83339V13.9564ZM27.0374 5.85042V2.03442H12.7274V5.85042H14.0594H26.0654H27.0374ZM27.8774 16.8844C28.4414 16.1464 28.0994 15.3364 28.0574 15.2464L24.8714 8.31042V7.05042H15.2594V8.59242V18.8344C15.2594 19.8904 16.1174 20.7484 17.1674 20.7484C18.2174 20.7484 19.0754 19.8904 19.0754 18.8344V11.2324H20.2754V12.7504H22.3274C23.2274 12.7504 23.9594 13.5064 23.9594 14.4364V21.1864V21.8344L27.8774 16.8844ZM2.39539 26.5264V27.3484C2.39539 27.6184 2.59339 27.8344 2.82739 27.8344H22.3214C22.5614 27.8344 22.7534 27.6124 22.7534 27.3484V26.5264H2.39539Z" fill="#558B3E"/>
<path d="M4.61526 17.1548H11.4253V15.9548H4.61526V17.1548Z" fill="#558B3E"/>
</g>
<defs>
<clipPath id="clip0_195_4038">
<rect width="28.8" height="28.8" fill="white" transform="matrix(1 0 0 -1 0.895325 29.3345)"/>
</clipPath>
</defs>
</svg>
