<svg width="30" height="30" viewBox="0 0 30 30" fill="none" xmlns="http://www.w3.org/2000/svg">
<g clip-path="url(#clip0_195_4025)">
<path d="M26.6999 22.2001V23.1001C26.6986 24.2932 26.2241 25.437 25.3804 26.2806C24.5368 27.1243 23.393 27.5988 22.1999 27.6001H7.79991C6.60684 27.5988 5.46301 27.1243 4.61938 26.2806C3.77575 25.437 3.30122 24.2932 3.29991 23.1001V22.2001C2.58405 22.1994 1.89771 21.9147 1.39152 21.4085C0.885322 20.9023 0.600629 20.216 0.599915 19.5001L0.599915 8.7001C0.601011 8.14239 0.774584 7.59867 1.09684 7.14348C1.41909 6.6883 1.87425 6.34393 2.39991 6.1576V5.1001C2.39991 4.38401 2.68438 3.69726 3.19073 3.19091C3.69707 2.68456 4.38383 2.4001 5.09991 2.4001C5.816 2.4001 6.50275 2.68456 7.0091 3.19091C7.51545 3.69726 7.79991 4.38401 7.79991 5.1001V6.0001H22.1999V5.1001C22.1999 4.38401 22.4844 3.69726 22.9907 3.19091C23.4971 2.68456 24.1838 2.4001 24.8999 2.4001C25.616 2.4001 26.3028 2.68456 26.8091 3.19091C27.3155 3.69726 27.5999 4.38401 27.5999 5.1001V6.1576C28.1256 6.34393 28.5807 6.6883 28.903 7.14348C29.2252 7.59867 29.3988 8.14239 29.3999 8.7001V19.5001C29.3992 20.216 29.1145 20.9023 28.6083 21.4085C28.1021 21.9147 27.4158 22.1994 26.6999 22.2001ZM5.09991 23.1001C5.10063 23.816 5.38532 24.5023 5.89152 25.0085C6.39771 25.5147 7.08405 25.7994 7.79991 25.8001H22.1999C22.9158 25.7994 23.6021 25.5147 24.1083 25.0085C24.6145 24.5023 24.8992 23.816 24.8999 23.1001V22.2001C24.184 22.1994 23.4977 21.9147 22.9915 21.4085C22.4853 20.9023 22.2006 20.216 22.1999 19.5001V18.6001H16.7999C16.6399 18.5993 16.4803 18.5843 16.3229 18.5551C16.3094 18.5551 16.2955 18.5519 16.282 18.5492C16.1366 18.5203 15.9939 18.4792 15.8554 18.4264L15.7991 18.4057C15.6671 18.3526 15.5397 18.289 15.418 18.2153C15.3991 18.2036 15.3797 18.1924 15.3608 18.1802C15.2422 18.1055 15.1296 18.0216 15.0242 17.9291C15.0166 17.9224 15.0076 17.9174 14.9999 17.9107C14.9923 17.9174 14.9833 17.9224 14.9756 17.9291C14.8702 18.0216 14.7576 18.1055 14.639 18.1802C14.6201 18.1924 14.6008 18.2036 14.5819 18.2153C14.4601 18.2889 14.3326 18.3525 14.2007 18.4057L14.1445 18.4264C14.0059 18.4791 13.8632 18.5202 13.7179 18.5492C13.7044 18.5519 13.6904 18.5528 13.6769 18.5551C13.5196 18.5843 13.3599 18.5993 13.1999 18.6001H7.79991V19.5001C7.7992 20.216 7.51451 20.9023 7.00831 21.4085C6.50212 21.9147 5.81578 22.1994 5.09991 22.2001V23.1001ZM7.79991 13.2001V16.8001H13.1999C13.4386 16.8001 13.6675 16.7053 13.8363 16.5365C14.0051 16.3677 14.0999 16.1388 14.0999 15.9001V13.2001H7.79991ZM15.8999 15.9001C15.8999 16.1388 15.9947 16.3677 16.1635 16.5365C16.3323 16.7053 16.5612 16.8001 16.7999 16.8001H22.1999V13.2001H15.8999V15.9001ZM5.99991 5.1001C5.99991 4.8614 5.90509 4.63248 5.73631 4.4637C5.56753 4.29492 5.33861 4.2001 5.09991 4.2001C4.86122 4.2001 4.6323 4.29492 4.46352 4.4637C4.29474 4.63248 4.19991 4.8614 4.19991 5.1001V6.0001H5.99991V5.1001ZM25.7999 5.1001C25.7999 4.8614 25.7051 4.63248 25.5363 4.4637C25.3675 4.29492 25.1386 4.2001 24.8999 4.2001C24.6612 4.2001 24.4323 4.29492 24.2635 4.4637C24.0947 4.63248 23.9999 4.8614 23.9999 5.1001V6.0001H25.7999V5.1001ZM27.5999 8.7001C27.5999 8.4614 27.5051 8.23248 27.3363 8.0637C27.1675 7.89492 26.9386 7.8001 26.6999 7.8001H3.29991C3.06122 7.8001 2.8323 7.89492 2.66352 8.0637C2.49474 8.23248 2.39991 8.4614 2.39991 8.7001V19.5001C2.39991 19.7388 2.49474 19.9677 2.66352 20.1365C2.8323 20.3053 3.06122 20.4001 3.29991 20.4001H5.09991C5.33861 20.4001 5.56753 20.3053 5.73631 20.1365C5.90509 19.9677 5.99991 19.7388 5.99991 19.5001V12.3001C5.99991 12.0614 6.09474 11.8325 6.26352 11.6637C6.4323 11.4949 6.66122 11.4001 6.89991 11.4001H23.0999C23.3386 11.4001 23.5675 11.4949 23.7363 11.6637C23.9051 11.8325 23.9999 12.0614 23.9999 12.3001V19.5001C23.9999 19.7388 24.0947 19.9677 24.2635 20.1365C24.4323 20.3053 24.6612 20.4001 24.8999 20.4001H26.6999C26.9386 20.4001 27.1675 20.3053 27.3363 20.1365C27.5051 19.9677 27.5999 19.7388 27.5999 19.5001V8.7001Z" fill="#558B3E"/>
</g>
<defs>
<clipPath id="clip0_195_4025">
<rect width="28.8" height="28.8" fill="white" transform="matrix(1 0 0 -1 0.600006 29.3999)"/>
</clipPath>
</defs>
</svg>
