<svg width="30" height="30" viewBox="0 0 30 30" fill="none" xmlns="http://www.w3.org/2000/svg">
<g clip-path="url(#clip0_195_3921)">
<path d="M29.5673 17.5542L30.1639 18.1508C31.1508 19.1378 31.1508 20.7436 30.1639 21.7306C29.177 22.7174 27.5711 22.7175 26.5842 21.7306L25.3909 20.5374C25.3908 20.5373 25.3908 20.5372 25.3906 20.5371L24.1553 19.3017V21.7407C24.1553 21.7416 24.1552 21.7424 24.1552 21.7432C24.1546 21.961 24.066 22.1796 23.908 22.3374L17.1583 29.0872C17.0059 29.2396 16.7887 29.3346 16.5613 29.3345H4.63654C3.2408 29.3345 2.10529 28.199 2.10529 26.8032V3.06572C2.10529 1.66999 3.2408 0.534473 4.63654 0.534473H21.624C23.0198 0.534473 24.1553 1.66999 24.1553 3.06572V12.1423L28.374 16.361L28.9707 15.7644C29.2997 15.4354 29.2997 14.9001 28.9707 14.5712L25.3909 10.9914C25.0614 10.6619 25.0614 10.1277 25.3909 9.79817C25.7204 9.46866 26.2547 9.46866 26.5842 9.79817L30.1639 13.3779C31.1508 14.3648 31.1508 15.9707 30.1639 16.9576L29.5673 17.5542ZM17.4053 26.4537L21.2746 22.5845H18.249C17.7838 22.5845 17.4053 22.963 17.4053 23.4282V26.4537ZM22.4678 3.06572H22.4678C22.4678 2.60048 22.0893 2.22197 21.624 2.22197H4.63654C4.17129 2.22197 3.79279 2.60048 3.79279 3.06572V26.8032C3.79279 27.2685 4.17129 27.647 4.63654 27.647H15.7178V23.4282C15.7178 22.0325 16.8533 20.897 18.249 20.897H22.4678V17.6142L14.6517 9.79812C14.4604 9.60675 14.4984 9.59022 12.4449 5.13094C12.2972 4.81009 12.3649 4.43119 12.6148 4.18139C12.8644 3.93169 13.2432 3.8638 13.5643 4.01157C18.2254 6.15796 18.0223 6.04911 18.1492 6.1471C18.1539 6.1507 18.159 6.15391 18.1636 6.15762C18.187 6.17652 18.2097 6.1966 18.2315 6.21837L22.4678 10.4547V3.06572ZM16.1818 7.07488L14.9332 6.4999L15.5081 7.74854L16.1818 7.07488ZM17.6348 8.0083L16.4416 9.20153L25.9876 18.7475L27.1808 17.5543L17.6348 8.0083ZM28.9706 19.3441L28.374 18.7474L27.1807 19.9407L27.7774 20.5373C28.1064 20.8663 28.6417 20.8663 28.9706 20.5373C29.2996 20.2083 29.2996 19.673 28.9706 19.3441Z" fill="#558B3E"/>
<path d="M7.77912 5.59692H4.52405C4.05807 5.59692 3.6803 5.21915 3.6803 4.75317C3.6803 4.2872 4.05807 3.90942 4.52405 3.90942H7.77912C8.2451 3.90942 8.62287 4.2872 8.62287 4.75317C8.62287 5.21915 8.2451 5.59692 7.77912 5.59692Z" fill="#558B3E"/>
<path d="M9.57912 10.6594H4.52405C4.05807 10.6594 3.6803 10.2816 3.6803 9.81567C3.6803 9.3497 4.05807 8.97192 4.52405 8.97192H9.57912C10.0451 8.97192 10.4229 9.3497 10.4229 9.81567C10.4229 10.2816 10.0451 10.6594 9.57912 10.6594Z" fill="#558B3E"/>
<path d="M14.6416 15.7219H4.52405C4.05807 15.7219 3.6803 15.3441 3.6803 14.8782C3.6803 14.4122 4.05807 14.0344 4.52405 14.0344H14.6416C15.1076 14.0344 15.4854 14.4122 15.4854 14.8782C15.4854 15.3441 15.1076 15.7219 14.6416 15.7219Z" fill="#558B3E"/>
<path d="M12.9541 20.897H4.52405C4.05807 20.897 3.6803 20.5192 3.6803 20.0532C3.6803 19.5872 4.05807 19.2095 4.52405 19.2095H12.9541C13.4201 19.2095 13.7979 19.5872 13.7979 20.0532C13.7979 20.5192 13.4201 20.897 12.9541 20.897Z" fill="#558B3E"/>
<path d="M7.77912 25.9595H4.52405C4.05807 25.9595 3.6803 25.5817 3.6803 25.1157C3.6803 24.6497 4.05807 24.272 4.52405 24.272H7.77912C8.2451 24.272 8.62287 24.6497 8.62287 25.1157C8.62287 25.5817 8.2451 25.9595 7.77912 25.9595Z" fill="#558B3E"/>
</g>
<defs>
<clipPath id="clip0_195_3921">
<rect width="28.8" height="28.8" fill="white" transform="matrix(1 0 0 -1 0.304688 29.3345)"/>
</clipPath>
</defs>
</svg>
