<svg width="30" height="30" viewBox="0 0 30 30" fill="none" xmlns="http://www.w3.org/2000/svg">
<path d="M25.0742 9.22407L28.4726 4.82824C24.6266 4.59441 23.75 4.58927 21.9679 4.22169C18.2579 3.45643 18.0192 2.53372 14.3092 1.76847C12.4599 1.42688 10.5821 1.26413 8.7016 1.28247L1.04773 11.1825C2.41502 11.2285 3.46586 11.2396 4.57757 11.3496" stroke="#558B3E" stroke-width="1.5" stroke-linecap="round" stroke-linejoin="round"/>
<path d="M25.0742 13.9745L28.4726 9.57873C24.6266 9.3449 23.75 9.33976 21.9679 8.97218C18.2579 8.20692 18.0192 7.28421 14.3092 6.51896C12.4599 6.17737 10.5821 6.01462 8.7016 6.03296L1.04773 15.933C2.41502 15.979 3.46586 15.9901 4.57757 16.1001" stroke="#558B3E" stroke-width="1.5" stroke-linecap="round" stroke-linejoin="round"/>
<path d="M25.0741 18.725L28.4726 14.3292C24.6266 14.0954 23.75 14.0902 21.9679 13.7227C18.2579 12.9574 18.0192 12.0347 14.3092 11.2694C12.4599 10.9279 10.5821 10.7651 8.7016 10.7834L1.04773 20.6834C2.41502 20.7295 3.46586 20.7406 4.57757 20.8506" stroke="#558B3E" stroke-width="1.5" stroke-linecap="round" stroke-linejoin="round"/>
<path d="M28.4727 18.9284C24.6267 18.6945 23.7501 18.6894 21.968 18.3218C18.258 17.5566 18.0193 16.6338 14.3093 15.8686C12.46 15.527 10.5821 15.3642 8.70166 15.3826L1.04779 25.2826C2.92826 25.2643 4.80612 25.427 6.65539 25.7686C10.3654 26.5338 10.6041 27.4566 14.3141 28.2218C16.0962 28.5894 16.9729 28.5945 20.8188 28.8284L28.4727 18.9284Z" stroke="#558B3E" stroke-width="1.5" stroke-linecap="round" stroke-linejoin="round"/>
</svg>
