<svg width="30" height="30" viewBox="0 0 30 30" fill="none" xmlns="http://www.w3.org/2000/svg">
<g clip-path="url(#clip0_195_4010)">
<path d="M0.95636 1.48167H21.3564V29.3345H0.95636V1.48167ZM15.928 3.11367L19.7244 6.90998V3.11367H15.928ZM14.774 4.26776V8.06407H18.5703L14.774 4.26776ZM2.58836 27.7025H19.7244V9.69607H13.142V3.11367H2.58836V27.7025Z" fill="#558B3E"/>
<path d="M6.01886 15.7781H16.2189V14.2088H6.01886V15.7781Z" fill="#558B3E"/>
<path d="M6.01886 12.4031H16.2189V10.8338H6.01886V12.4031Z" fill="#558B3E"/>
<path d="M6.01886 19.1531H16.2189V17.5838H6.01886V19.1531Z" fill="#558B3E"/>
<path d="M6.01886 22.5281H16.2189V20.9588H6.01886V22.5281Z" fill="#558B3E"/>
<path d="M26.1657 29.3345C24.8424 29.3345 23.7657 28.2579 23.7657 26.9345V9.70019C23.7657 8.61501 24.4899 7.69626 25.48 7.40054V5.92876H26.8515V7.40054C27.8416 7.69626 28.5657 8.61501 28.5657 9.70019V26.9345C28.5657 28.2579 27.4891 29.3345 26.1657 29.3345ZM26.1657 27.963C26.7329 27.963 27.1943 27.5016 27.1943 26.9345V18.3173H25.1372V26.9345C25.1372 27.5016 25.5986 27.963 26.1657 27.963ZM27.1943 16.9459V11.803H25.1372V16.9459H27.1943ZM26.1657 8.67161C25.5986 8.67161 25.1372 9.13304 25.1372 9.70019V10.4316H27.1943V9.70019C27.1943 9.13304 26.7329 8.67161 26.1657 8.67161Z" fill="#558B3E"/>
</g>
<defs>
<clipPath id="clip0_195_4010">
<rect width="28.8" height="28.8" fill="white" transform="matrix(1 0 0 -1 0.900024 29.3345)"/>
</clipPath>
</defs>
</svg>
