<svg width="32" height="32" viewBox="0 0 32 32" fill="none" xmlns="http://www.w3.org/2000/svg">
<path d="M28.0302 10.3598C27.8007 9.89422 27.445 9.50246 27.0038 9.22909C26.5626 8.95571 26.0534 8.81169 25.5344 8.81341H20.9328V8.20541C20.932 7.60365 20.6926 7.02677 20.2671 6.60126C19.8416 6.17576 19.2647 5.93635 18.663 5.93555H15.623C15.4214 5.93555 15.2281 6.01562 15.0856 6.15815C14.943 6.30067 14.863 6.49398 14.863 6.69555C14.863 6.89711 14.943 7.09042 15.0856 7.23295C15.2281 7.37548 15.4214 7.45555 15.623 7.45555H18.663C18.8618 7.45581 19.0523 7.5349 19.1929 7.67547C19.3335 7.81604 19.4126 8.00662 19.4128 8.20541V9.56429V9.57341V9.58355V18.7765C19.4128 19.1124 19.2794 19.4346 19.0418 19.6722C18.8043 19.9097 18.4821 20.0432 18.1462 20.0432H2.57832V19.5071C2.57832 19.499 2.57832 19.4909 2.57832 19.4828V16.1672C2.57832 15.9656 2.49825 15.7723 2.35572 15.6298C2.21319 15.4872 2.01988 15.4072 1.81832 15.4072C1.61675 15.4072 1.42345 15.4872 1.28092 15.6298C1.13839 15.7723 1.05832 15.9656 1.05832 16.1672V20.8032C1.05832 20.8123 1.06339 20.8194 1.06339 20.8285V22.8248C1.06707 23.981 1.48758 25.0972 2.24774 25.9685C3.0079 26.8398 4.05674 27.4077 5.20184 27.5682C5.35682 28.3054 5.75871 28.9678 6.34108 29.4457C6.92345 29.9236 7.65146 30.1886 8.40479 30.1967C9.15812 30.2049 9.89169 29.9557 10.4843 29.4905C11.0768 29.0253 11.493 28.3718 11.6639 27.6381H20.1657C20.3361 28.37 20.7505 29.0221 21.3408 29.4871C21.9311 29.9521 22.6621 30.2023 23.4136 30.1965C24.165 30.1907 24.8921 29.9293 25.4752 29.4553C26.0583 28.9813 26.4626 28.3229 26.6217 27.5885C27.805 27.4715 28.9028 26.9198 29.7027 26.04C30.5026 25.1601 30.9476 24.0148 30.9517 22.8258V16.3891C30.9517 16.2709 30.9243 16.1544 30.8716 16.0486L28.0302 10.3598ZM26.6683 11.0367L29.1337 15.9807H26.0025C25.6667 15.9805 25.3446 15.8469 25.1072 15.6094C24.8697 15.3719 24.7361 15.0499 24.7359 14.7141V10.3334H25.5344C25.7701 10.3323 26.0014 10.3974 26.2019 10.5214C26.4024 10.6454 26.564 10.8232 26.6683 11.0346V11.0367ZM8.43843 28.6768C8.08414 28.677 7.73772 28.5723 7.44282 28.3759C7.14793 28.1795 6.91775 27.9003 6.78131 27.5733C6.64486 27.2464 6.60824 26.8863 6.67607 26.5386C6.74389 26.1909 6.91313 25.871 7.16245 25.6193C7.41177 25.3675 7.73002 25.1953 8.0771 25.1241C8.42417 25.053 8.78454 25.0861 9.11279 25.2194C9.44104 25.3528 9.72248 25.5803 9.92166 25.8733C10.1208 26.1663 10.2288 26.5117 10.232 26.8659V26.8781V26.8923C10.2286 27.3661 10.0382 27.8193 9.70231 28.1535C9.36643 28.4877 8.91222 28.6757 8.43843 28.6768ZM23.381 28.6768C22.9071 28.6762 22.4526 28.4884 22.1166 28.1541C21.7806 27.8198 21.5904 27.3662 21.5874 26.8923V26.8781V26.8659C21.5998 26.3975 21.795 25.9524 22.1311 25.626C22.4673 25.2995 22.9179 25.1174 23.3865 25.1187C23.8551 25.1201 24.3046 25.3046 24.639 25.633C24.9733 25.9614 25.1659 26.4076 25.1757 26.8761V26.8822C25.1751 27.358 24.9859 27.8141 24.6494 28.1506C24.313 28.487 23.8568 28.6762 23.381 28.6768ZM26.5842 26.0725C26.4052 25.3533 25.9895 24.7152 25.404 24.2608C24.8185 23.8065 24.0971 23.5623 23.356 23.5675C22.6149 23.5728 21.8971 23.8272 21.318 24.2898C20.739 24.7525 20.3324 25.3964 20.1637 26.1181H11.6517C11.4836 25.398 11.0786 24.7552 10.5016 24.2927C9.92458 23.8302 9.20902 23.5748 8.46957 23.5674C7.73013 23.56 7.00962 23.8012 6.42354 24.2521C5.83745 24.703 5.41972 25.3376 5.23731 26.0543C4.48821 25.9074 3.81327 25.5052 3.32763 24.9163C2.84199 24.3273 2.57572 23.5881 2.57427 22.8248V21.5632H18.1462C18.8851 21.5626 19.5936 21.2689 20.116 20.7464C20.6385 20.2239 20.9323 19.5154 20.9328 18.7765V10.3334H23.2159V14.7141C23.2164 15.453 23.5102 16.1614 24.0327 16.6839C24.5551 17.2064 25.2636 17.5002 26.0025 17.5007H29.4266V20.6198H28.7487C28.5471 20.6198 28.3538 20.6998 28.2113 20.8424C28.0687 20.9849 27.9887 21.1782 27.9887 21.3798C27.9887 21.5813 28.0687 21.7746 28.2113 21.9172C28.3538 22.0597 28.5471 22.1398 28.7487 22.1398H29.4266V22.8248C29.4239 23.6178 29.1348 24.3832 28.6125 24.98C28.0902 25.5768 27.3699 25.9648 26.5842 26.0725Z" fill="#558B3E"/>
<path d="M6.78665 8.96344C7.57855 8.96344 8.22052 8.32147 8.22052 7.52957C8.22052 6.73767 7.57855 6.0957 6.78665 6.0957C5.99475 6.0957 5.35278 6.73767 5.35278 7.52957C5.35278 8.32147 5.99475 8.96344 6.78665 8.96344Z" fill="#558B3E"/>
<path d="M4.91302 13.5102C5.42609 13.9764 6.09445 14.2347 6.78768 14.2347C7.48092 14.2347 8.14928 13.9764 8.66235 13.5102C10.4205 11.896 12.513 9.5491 12.513 7.53155C12.4733 6.03947 11.8527 4.62184 10.7833 3.58054C9.71393 2.53924 8.28029 1.95654 6.78768 1.95654C5.29508 1.95654 3.86143 2.53924 2.79206 3.58054C1.72268 4.62184 1.10205 6.03947 1.06235 7.53155C1.05931 9.5491 3.15387 11.896 4.91302 13.5102ZM6.78566 3.32318C7.90111 3.32425 8.97059 3.7677 9.75953 4.55625C10.5485 5.3448 10.9924 6.41408 10.994 7.52953C10.994 8.65737 9.76891 10.4297 7.6328 12.3935C7.40082 12.6035 7.09907 12.7198 6.78616 12.7198C6.47325 12.7198 6.17151 12.6035 5.93952 12.3935C3.80443 10.4266 2.57931 8.65737 2.57931 7.52953C2.58065 6.41434 3.02425 5.34522 3.8128 4.55667C4.60135 3.76812 5.67048 3.32452 6.78566 3.32318Z" fill="#558B3E"/>
</svg>
